<svg xmlns="http://www.w3.org/2000/svg" width="16" height="16" viewBox="0 0 16 16" fill="none">
  <path fill-rule="evenodd" clip-rule="evenodd" d="M8 0C3.58 0 0 3.58 0 8C0 11.54 2.29 14.41 5.47 15.34C5.91 15.41 6.08 15.14 6.08 14.91C6.08 14.7 6.07 14.01 6.07 13.22C4 13.59 3.48 12.54 3.48 12.54C3.09 11.66 2.5 11.41 2.5 11.41C1.71 10.91 2.56 10.91 2.56 10.91C3.41 10.97 3.86 11.84 3.86 11.84C4.62 13.09 5.81 12.73 6.28 12.5C6.34 11.9 6.57 11.5 6.81 11.27C4.96 11.04 3.01 10.35 3.01 7.39C3.01 6.54 3.31 5.87 3.78 5.36C3.71 5.13 3.46 4.28 3.87 3.22C3.87 3.22 4.56 3 6.07 4C6.67 3.85 7.32 3.77 7.97 3.77C8.62 3.77 9.27 3.85 9.87 4C11.38 3 12.07 3.22 12.07 3.22C12.48 4.28 12.23 5.13 12.16 5.36C12.63 5.87 12.93 6.54 12.93 7.39C12.93 10.35 10.98 11.04 9.14 11.27C9.45 11.55 9.72 12.1 9.72 12.91C9.72 13.93 9.71 14.64 9.71 14.91C9.71 15.14 9.88 15.42 10.32 15.33C13.5 14.41 16 11.54 16 8C16 3.58 12.42 0 8 0Z" fill="white"/>
</svg>
