<?xml version="1.0" standalone="no"?>
<!DOCTYPE svg PUBLIC "-//W3C//DTD SVG 20010904//EN"
 "http://www.w3.org/TR/2001/REC-SVG-20010904/DTD/svg10.dtd">
<svg version="1.0" xmlns="http://www.w3.org/2000/svg"
 width="300.000000pt" height="200.000000pt" viewBox="0 0 300.000000 200.000000"
 preserveAspectRatio="xMidYMid meet">
<metadata>
Created by potrace 1.10, written by Peter Selinger 2001-2011
</metadata>
<g transform="translate(0.000000,200.000000) scale(0.100000,-0.100000)"
fill="#000000" stroke="none">
<path d="M4 1986 c-12 -32 1 -70 26 -77 21 -6 11 -14 -13 -10 -4 0 -7 -3 -7
-9 0 -5 6 -10 14 -10 22 0 29 -19 14 -37 -7 -9 -13 -40 -13 -70 -1 -48 2 -54
22 -59 17 -5 23 -13 23 -35 0 -16 -4 -29 -10 -29 -5 0 -10 11 -10 24 0 14 -4
28 -10 31 -6 4 -7 -6 -3 -27 7 -36 30 -60 51 -53 6 2 12 2 12 0 0 -7 -37 -44
-42 -42 -2 1 5 -6 15 -15 22 -20 28 -79 10 -85 -9 -3 -13 5 -13 24 0 15 -5 35
-10 43 -8 12 -10 10 -10 -10 0 -43 11 -68 32 -73 20 -6 22 -44 1 -40 -5 1 -9
-8 -8 -20 1 -12 3 -28 4 -35 0 -7 6 -10 12 -6 8 4 8 9 0 17 -17 17 -13 31 4
17 9 -7 13 -20 10 -28 -3 -8 0 -21 7 -29 10 -12 9 -18 -6 -28 -10 -8 -16 -21
-13 -32 4 -16 5 -16 6 0 1 10 9 17 21 17 18 0 19 5 13 47 -4 34 -3 44 5 39 7
-4 12 -2 12 4 0 6 -6 10 -14 8 -8 -2 -15 1 -15 7 -1 5 9 10 21 10 15 0 24 -7
26 -20 7 -49 13 -65 22 -60 5 3 5 18 -1 37 -10 35 -5 48 12 31 11 -11 15 -90
6 -100 -10 -9 -47 22 -47 39 0 9 -4 20 -10 23 -13 8 -13 1 4 -40 10 -22 22
-35 34 -35 10 0 21 -3 25 -6 9 -9 -4 -35 -14 -28 -5 3 -7 10 -4 15 4 5 1 9 -5
9 -7 0 -9 -12 -4 -35 4 -23 2 -35 -5 -35 -6 0 -11 8 -11 17 0 9 -2 14 -5 11
-9 -9 6 -58 16 -52 5 3 9 0 9 -6 0 -7 8 -9 19 -5 15 5 18 2 14 -13 -3 -14 -11
-18 -29 -14 -30 6 -40 23 -49 90 -4 34 -12 52 -21 52 -10 0 -11 -6 -4 -26 6
-14 10 -45 10 -70 0 -24 5 -44 10 -44 6 0 10 -4 10 -10 0 -5 -6 -10 -13 -10
-22 0 -20 -64 3 -85 23 -21 27 -50 6 -42 -12 5 -13 -3 -9 -36 3 -23 6 -50 6
-59 1 -18 17 -26 17 -8 0 5 7 7 16 3 10 -4 12 -8 5 -13 -8 -4 -7 -29 4 -86 8
-43 15 -105 15 -136 0 -75 13 -108 42 -107 23 0 23 0 2 9 -12 4 -24 15 -27 24
-6 14 -4 15 17 1 12 -8 45 -17 72 -20 101 -10 134 -16 134 -25 0 -5 15 -6 34
-3 42 7 109 -5 101 -17 -3 -5 8 -4 25 1 17 6 43 8 58 4 15 -5 38 -9 52 -10 14
-1 31 -3 38 -4 8 0 10 -6 6 -13 -6 -10 -4 -10 7 0 14 13 43 17 36 5 -3 -5 20
-9 51 -10 32 -2 72 -4 89 -5 18 -2 33 2 33 7 1 10 -81 23 -305 49 -66 8 -188
23 -271 32 l-152 18 -11 71 c-7 38 -13 90 -14 115 -1 25 -5 50 -9 55 -3 6 -14
64 -23 129 -15 100 -15 120 -4 127 13 8 6 13 -13 10 -5 0 -8 8 -8 18 0 14 5
18 20 14 11 -3 20 -11 20 -18 0 -8 8 -11 20 -8 11 3 20 0 20 -6 0 -6 -9 -11
-21 -11 -14 0 -19 -5 -17 -17 2 -13 13 -18 38 -18 31 0 35 -3 38 -27 3 -26 1
-27 -28 -22 l-31 7 4 -56 c5 -63 13 -81 33 -73 19 7 30 -22 15 -37 -8 -8 -11
-7 -11 6 0 17 -11 22 -23 11 -10 -11 5 -34 22 -34 10 0 21 -3 25 -8 4 -4 13
-7 19 -7 5 0 12 -5 14 -11 5 -14 -45 -16 -53 -3 -3 5 -10 7 -15 3 -5 -3 -7
-10 -3 -15 3 -5 9 -7 14 -4 4 3 13 -9 19 -27 14 -39 14 -38 -4 -38 -10 0 -15
10 -16 28 0 23 -1 24 -8 7 -10 -26 19 -71 32 -49 11 19 52 18 71 -2 9 -8 28
-14 43 -12 37 4 43 42 12 71 -21 19 -21 21 -3 34 12 9 21 10 28 3 5 -5 14 -10
20 -10 6 0 5 5 -2 12 -7 7 -12 18 -12 25 0 19 28 16 33 -4 4 -17 5 -17 6 0 2
27 21 20 21 -8 0 -18 5 -25 19 -25 10 0 21 -6 24 -14 4 -9 28 -17 64 -21 32
-4 66 -12 76 -17 10 -5 17 -5 17 1 0 15 -19 24 -59 28 -19 2 -40 8 -47 14 -8
7 -14 6 -17 -3 -3 -9 -9 -7 -21 7 -21 27 -20 48 1 41 10 -2 44 -10 76 -17 31
-7 57 -16 57 -21 0 -4 5 -8 10 -8 19 0 10 21 -15 32 -34 15 -32 28 5 28 17 0
30 -4 30 -10 0 -5 7 -10 15 -10 12 0 13 4 4 18 -7 11 -25 19 -47 20 -20 2 -39
7 -42 11 -3 4 -16 7 -30 6 -14 -1 -32 2 -40 6 -8 4 -32 11 -53 14 -29 5 -41
13 -50 33 -20 46 -31 53 -57 35 -13 -9 -20 -11 -16 -5 8 13 -60 45 -76 36 -6
-4 -9 -1 -6 6 2 7 14 17 27 21 13 6 20 5 16 -1 -6 -10 42 -26 52 -17 3 4 24
-3 47 -15 22 -12 35 -23 29 -25 -28 -10 -11 -28 27 -31 22 -1 52 -8 67 -14 16
-6 34 -10 41 -9 6 1 12 -3 12 -9 0 -5 6 -10 14 -10 8 0 16 -4 18 -10 2 -6 8
-6 18 0 13 8 13 10 -1 10 -9 0 -22 7 -29 15 -7 8 -21 15 -31 15 -15 0 -19 8
-19 40 0 30 4 40 16 40 10 0 14 -6 11 -14 -4 -10 -1 -13 9 -9 10 4 14 -2 14
-20 0 -20 6 -26 32 -31 39 -8 47 -1 16 15 -22 11 -40 32 -38 44 1 4 -18 21
-42 40 -32 24 -57 34 -91 36 -26 2 -47 1 -47 -3 0 -12 -28 2 -34 17 -4 11 7
13 55 9 46 -3 64 -1 76 11 12 13 18 13 32 3 13 -10 14 -10 4 2 -7 8 -13 23
-13 33 0 16 5 18 27 12 42 -10 54 -34 28 -55 -17 -14 -20 -46 -5 -55 18 -11
51 -14 45 -4 -4 5 -12 9 -20 9 -19 0 -25 13 -15 30 7 11 11 11 24 1 8 -7 20
-10 25 -7 5 4 14 -2 20 -11 6 -10 11 -13 11 -6 0 9 8 9 30 1 25 -8 34 -7 49 6
10 9 20 13 24 10 7 -7 4 17 -5 31 -12 21 -20 113 -9 119 5 4 8 13 5 21 -4 8
-11 12 -16 9 -6 -4 -8 -39 -4 -93 5 -60 4 -82 -3 -71 -6 8 -11 26 -11 39 0 14
-14 37 -36 57 -36 35 -58 42 -69 24 -4 -7 -11 -8 -18 -1 -13 10 -17 11 -48 11
-11 0 -18 3 -16 8 3 4 -5 7 -17 7 -15 0 -23 -6 -24 -20 -1 -16 1 -17 8 -5 6 9
13 11 18 5 4 -5 20 -11 36 -12 35 -3 48 -14 37 -31 -6 -10 -16 -9 -50 3 -23 8
-45 14 -49 14 -33 -5 -53 3 -50 18 2 10 8 18 15 18 6 0 15 3 19 8 4 4 -2 7
-13 7 -30 0 -49 -55 -25 -70 14 -8 12 -9 -8 -6 -14 3 -31 5 -37 5 -14 1 -18
31 -5 31 5 0 8 17 8 38 0 29 -4 38 -18 39 -10 1 -18 -2 -18 -8 0 -5 5 -9 10
-9 6 0 10 -10 10 -21 0 -17 -4 -20 -22 -15 -13 3 -26 6 -30 6 -15 0 -8 30 6
30 9 0 14 9 13 20 -1 12 -8 20 -19 20 -21 0 -24 16 -5 23 7 3 5 6 -5 6 -18 1
-25 -23 -10 -33 4 -2 6 -25 4 -51 -3 -36 -7 -45 -19 -41 -8 3 -19 6 -24 6 -5
0 -9 5 -9 11 0 6 6 9 14 6 9 -4 12 0 9 13 -3 10 -12 21 -20 24 -10 4 -13 1 -9
-12 3 -9 1 -24 -4 -32 -8 -13 -10 -13 -11 3 -1 9 -3 22 -4 27 -1 6 -3 14 -4
18 0 4 -14 13 -31 19 -17 6 -30 19 -30 28 0 10 5 13 12 9 7 -4 23 -9 37 -10
13 -2 27 -8 31 -15 5 -6 10 -7 13 -2 4 6 -5 16 -18 23 -37 20 -33 41 5 30 16
-5 30 -5 30 0 0 10 40 1 58 -13 7 -5 15 -7 19 -3 3 3 1 6 -5 6 -7 0 -12 6 -12
14 0 8 -6 17 -12 19 -7 3 -8 6 -3 6 24 2 38 -19 37 -54 -1 -33 0 -36 15 -24
13 11 17 11 20 2 3 -7 16 -13 29 -13 13 0 24 -4 24 -9 0 -4 11 -6 25 -3 36 6
73 -5 78 -26 4 -14 5 -14 6 -1 0 9 -6 22 -14 29 -18 15 -19 30 -2 30 16 0 47
-36 47 -55 0 -8 5 -15 10 -15 6 0 10 18 10 40 0 29 4 40 15 40 19 0 19 14 0
30 -12 10 -15 9 -15 -8 0 -20 -25 -36 -41 -26 -16 10 -10 36 10 41 24 6 34 30
21 51 -8 15 -9 14 -10 -6 0 -20 -4 -23 -32 -20 -27 2 -33 7 -31 26 2 12 -2 22
-9 22 -12 0 -37 29 -38 44 0 4 11 5 25 2 17 -4 23 -2 21 6 -3 7 -7 24 -10 38
-3 17 -13 26 -26 27 -11 1 -18 -2 -16 -6 3 -4 -3 -12 -12 -17 -13 -8 -21 -6
-34 8 -10 10 -15 18 -12 18 4 0 -4 8 -17 19 -13 10 -26 18 -29 18 -3 0 -14 5
-26 11 -14 7 -24 8 -31 1 -7 -7 -12 -5 -17 6 -3 9 -2 14 3 10 5 -3 11 1 14 7
3 10 9 11 26 1 33 -20 46 -15 18 7 -14 11 -32 20 -40 20 -7 0 -24 9 -36 19
-13 11 -29 17 -36 15 -18 -7 -30 15 -15 29 10 9 14 9 17 0 3 -7 18 -13 33 -13
17 0 34 -8 43 -20 8 -11 16 -17 20 -14 13 14 45 -8 50 -35 3 -16 13 -31 21
-34 13 -5 14 -3 4 13 -7 10 -9 22 -5 26 10 11 39 -18 33 -33 -3 -8 -1 -11 4
-8 6 3 10 1 10 -6 0 -7 2 -10 5 -7 4 3 3 17 -1 31 -5 24 -36 44 -57 39 -4 -1
-10 5 -13 13 -3 8 -10 13 -15 10 -14 -9 -32 34 -19 49 14 18 -4 66 -25 66 -8
0 -24 9 -35 20 -11 11 -20 16 -20 11 0 -5 -13 -3 -30 5 -16 9 -30 22 -30 29 0
7 -6 15 -12 18 -8 2 -9 8 -4 13 5 5 11 4 13 -3 7 -20 29 -15 40 9 6 14 12 18
16 11 4 -6 0 -18 -8 -26 -17 -17 -21 -42 -5 -32 5 3 20 0 32 -7 13 -7 29 -11
36 -10 6 2 12 -2 12 -8 0 -5 5 -10 11 -10 13 0 60 -48 63 -64 1 -6 5 -17 9
-23 5 -7 5 -17 2 -23 -3 -5 -2 -10 4 -10 5 0 11 8 13 18 6 28 -3 62 -17 62 -7
0 -15 7 -19 15 -8 21 16 19 40 -3 10 -10 27 -21 36 -25 11 -4 15 -12 12 -22
-4 -9 -13 -14 -20 -11 -16 6 -19 -10 -4 -19 6 -4 8 -11 5 -16 -3 -5 1 -6 10
-2 10 3 20 2 24 -3 8 -12 73 -35 66 -24 -3 5 0 12 6 15 6 4 8 18 5 31 -4 13
-2 24 3 24 5 0 12 -16 15 -35 8 -41 17 -44 41 -11 10 13 25 22 35 19 9 -2 22
3 29 11 15 18 7 66 -12 66 -7 0 -29 9 -49 20 -20 10 -38 15 -40 10 -4 -14 -78
21 -78 37 0 16 15 17 32 1 7 -7 20 -14 28 -16 8 -1 -1 11 -20 27 -19 16 -37
29 -40 29 -8 -2 -63 26 -92 46 -25 16 -39 46 -22 46 13 0 64 -35 64 -43 0 -5
6 -7 14 -4 8 3 22 -3 31 -13 10 -11 20 -18 24 -18 18 5 51 -16 51 -31 0 -10 6
-18 14 -18 8 0 11 7 9 17 -5 19 -202 130 -230 130 -10 0 -14 -4 -8 -8 14 -10
18 -42 5 -42 -5 0 -10 4 -10 8 0 18 -77 41 -134 40 l-60 -1 30 -23 c22 -18 25
-24 12 -24 -10 0 -18 5 -18 11 0 5 -4 7 -10 4 -5 -3 -20 1 -33 10 -13 8 -27
12 -30 9 -4 -4 -13 -1 -21 5 -17 15 -36 7 -36 -15 0 -8 -4 -14 -10 -14 -5 0
-10 8 -10 18 0 14 -8 18 -40 18 -32 1 -38 -2 -28 -13 14 -17 4 -28 -18 -19 -9
3 -14 12 -10 21 3 8 1 15 -4 15 -6 0 -10 -3 -11 -7 0 -5 -2 -18 -3 -30 -2 -13
2 -23 8 -23 13 0 -15 -20 -28 -20 -5 0 -6 18 -3 40 5 40 1 52 -9 26z m414 -15
c15 -10 37 -22 50 -25 12 -4 22 -14 22 -23 0 -12 -11 -8 -52 14 -29 17 -54 35
-56 41 -5 17 6 15 36 -7z m-298 -6 c0 -8 -4 -15 -10 -15 -5 0 -10 7 -10 15 0
8 5 15 10 15 6 0 10 -7 10 -15z m88 -4 c3 -8 -1 -12 -9 -9 -7 2 -15 10 -17 17
-3 8 1 12 9 9 7 -2 15 -10 17 -17z m56 -17 c6 -2 26 -6 44 -9 26 -6 32 -4 32
9 0 9 5 16 10 16 6 0 10 -4 10 -9 0 -5 9 -11 20 -14 11 -3 20 -10 20 -16 0
-14 -17 -14 -25 -1 -9 15 -35 12 -35 -5 0 -18 -58 -14 -70 5 -4 6 -16 10 -26
8 -14 -2 -20 4 -22 22 -4 22 -2 23 13 10 9 -8 22 -15 29 -16z m-114 -9 c0 -8
-4 -15 -9 -15 -13 0 -22 16 -14 24 11 11 23 6 23 -9z m30 -5 c0 -5 -4 -10 -10
-10 -5 0 -10 5 -10 10 0 6 5 10 10 10 6 0 10 -4 10 -10z m-95 -10 c4 -6 10 -8
15 -5 10 6 25 -14 16 -22 -3 -3 -12 0 -20 6 -22 18 -27 -1 -7 -26 18 -21 18
-21 34 -2 10 11 17 24 17 29 0 6 5 10 10 10 6 0 10 -11 10 -25 0 -18 -5 -25
-18 -25 -27 0 -34 -11 -19 -29 10 -14 10 -14 -5 -3 -9 8 -26 11 -37 7 -15 -4
-20 -1 -23 17 -8 53 10 96 27 68z m167 -16 c9 -3 21 -19 27 -35 6 -16 24 -37
40 -47 36 -20 41 -37 9 -27 -13 3 -29 7 -35 7 -11 1 -17 15 -15 38 0 3 -20 19
-44 35 -47 32 -62 62 -21 45 12 -6 30 -13 39 -16z m188 17 c0 -6 -4 -13 -10
-16 -5 -3 -10 1 -10 9 0 9 5 16 10 16 6 0 10 -4 10 -9z m28 -29 c2 -7 -3 -12
-12 -12 -9 0 -16 7 -16 16 0 17 22 14 28 -4z m76 9 c4 -5 -4 -7 -16 -3 -14 3
-19 2 -14 -6 4 -7 14 -12 21 -12 8 0 19 -9 25 -19 14 -26 13 -31 -6 -31 -22 0
-74 38 -74 55 0 19 54 33 64 16z m-336 -47 c4 -33 -11 -24 -23 15 -5 17 -4 22
6 19 8 -3 15 -18 17 -34z m191 7 c-3 -6 -10 -7 -18 -2 -7 5 -10 14 -6 21 9 14
29 -2 24 -19z m33 -3 c-9 -9 -12 -7 -12 12 0 19 3 21 12 12 9 -9 9 -15 0 -24z
m173 12 c3 -5 -3 -10 -15 -10 -12 0 -18 5 -15 10 3 6 10 10 15 10 5 0 12 -4
15 -10z m-140 -20 c4 -6 11 -8 16 -5 5 4 12 -1 15 -9 3 -9 10 -13 15 -10 11 6
49 -14 49 -26 0 -6 -7 -10 -15 -10 -8 0 -15 4 -15 9 0 6 -19 14 -42 18 -28 6
-44 15 -46 26 -4 18 13 23 23 7z m-291 -16 c19 -18 21 -34 5 -34 -12 0 -38 29
-39 43 0 12 18 8 34 -9z m432 -20 c-5 -13 -10 -14 -18 -6 -6 6 -8 18 -4 28 5
13 10 14 18 6 6 -6 8 -18 4 -28z m-506 -9 c0 -26 -14 -33 -25 -15 -9 14 1 40
15 40 5 0 10 -11 10 -25z m-40 -10 c0 -14 -4 -25 -10 -25 -5 0 -10 11 -10 25
0 14 5 25 10 25 6 0 10 -11 10 -25z m200 4 c13 -24 8 -34 -15 -26 -16 7 -21
47 -5 47 5 0 14 -9 20 -21z m400 -4 c0 -8 -4 -15 -9 -15 -13 0 -22 16 -14 24
11 11 23 6 23 -9z m-494 -3 c15 -10 25 -52 12 -52 -5 0 -12 9 -15 20 -3 11 -9
20 -14 20 -5 0 -9 5 -9 10 0 12 11 13 26 2z m224 -1 c0 -5 9 -13 20 -16 11 -3
20 -11 20 -16 0 -5 -10 -4 -22 3 -13 7 -29 11 -35 10 -7 -2 -13 4 -13 13 0 8
7 15 15 15 8 0 15 -4 15 -9z m-257 -29 c3 -16 17 -34 31 -41 25 -14 26 -37 1
-27 -7 2 -23 -7 -35 -21 -27 -31 -36 -23 -44 40 -4 36 -3 48 7 44 6 -2 12 -12
13 -23 2 -39 4 -43 19 -38 10 4 12 10 7 18 -13 16 -23 76 -13 76 5 0 11 -13
14 -28z m195 10 c2 -7 -3 -12 -12 -12 -9 0 -16 7 -16 16 0 17 22 14 28 -4z
m302 -3 c9 -15 7 -19 -7 -19 -10 0 -23 8 -29 18 -10 15 -8 18 7 19 11 1 24 -7
29 -18z m105 1 c0 -22 -39 -19 -43 3 -3 15 1 18 20 15 12 -2 23 -10 23 -18z
m-520 -20 c-5 -8 -11 -8 -17 -2 -6 6 -7 16 -3 22 5 8 11 8 17 2 6 -6 7 -16 3
-22z m175 -2 c14 -1 26 -10 28 -20 3 -14 -2 -15 -34 -8 -20 5 -41 13 -46 18
-14 14 0 36 15 23 7 -5 23 -11 37 -13z m293 8 c3 -8 -2 -16 -14 -19 -14 -4
-19 0 -19 14 0 22 25 26 33 5z m101 -9 c12 -19 3 -32 -19 -24 -17 7 -21 51 -3
45 6 -2 16 -12 22 -21z m-719 -7 c-3 -5 -13 -10 -21 -10 -8 0 -12 5 -9 10 3 6
13 10 21 10 8 0 12 -4 9 -10z m240 1 c3 -5 1 -12 -5 -16 -5 -3 -10 1 -10 9 0
18 6 21 15 7z m-25 -20 c0 -11 4 -21 9 -23 5 -1 12 -15 16 -30 5 -21 2 -29
-14 -38 -22 -11 -31 3 -10 16 8 4 6 10 -6 17 -14 7 -15 11 -4 18 11 6 10 11
-4 27 -9 10 -14 22 -10 25 12 13 23 7 23 -12z m370 -10 c17 -32 12 -40 -15
-28 -27 13 -34 47 -10 47 8 0 19 -9 25 -19z m78 -9 c2 -7 -3 -12 -12 -12 -9 0
-16 7 -16 16 0 17 22 14 28 -4z m-508 -4 c0 -9 3 -8 10 2 14 22 18 11 25 -77
6 -59 4 -83 -4 -83 -6 0 -11 5 -11 11 0 7 -8 17 -17 24 -16 12 -16 14 -1 29 9
9 15 27 14 41 -4 38 -16 43 -16 6 0 -19 -4 -30 -10 -26 -5 3 -10 24 -10 46 0
21 5 39 10 39 6 0 10 -6 10 -12z m-32 -56 c2 -7 -2 -10 -10 -7 -10 4 -13 -7
-11 -45 2 -51 -3 -60 -25 -38 -9 9 -12 9 -12 0 0 -7 -4 -12 -8 -12 -5 0 -9 14
-9 30 0 34 11 39 27 13 9 -15 10 -11 8 18 -4 35 8 60 26 55 6 -1 12 -8 14 -14z
m182 -13 c0 -6 -4 -7 -10 -4 -5 3 -10 11 -10 16 0 6 5 7 10 4 6 -3 10 -11 10
-16z m-236 -4 c3 -9 0 -15 -9 -15 -8 0 -15 7 -15 15 0 8 4 15 9 15 5 0 11 -7
15 -15z m190 -1 c9 -3 16 -15 16 -26 0 -28 -34 -19 -38 10 -4 24 -2 25 22 16z
m-124 -30 c0 -14 -4 -23 -10 -19 -5 3 -10 15 -10 26 0 10 5 19 10 19 6 0 10
-12 10 -26z m178 -13 c3 -16 -1 -22 -10 -19 -7 3 -15 15 -16 27 -3 16 1 22 10
19 7 -3 15 -15 16 -27z m53 -4 c-1 -12 -15 -9 -19 4 -3 6 1 10 8 8 6 -3 11 -8
11 -12z m-141 -22 c0 -14 5 -24 11 -22 6 1 14 -4 16 -10 3 -7 -1 -13 -9 -13
-10 0 -9 -3 2 -10 13 -8 12 -10 -2 -10 -11 0 -18 -7 -17 -17 0 -11 3 -13 6 -5
7 17 23 15 23 -3 0 -9 -7 -18 -15 -21 -10 -4 -13 -13 -10 -25 5 -13 1 -17 -15
-16 -11 1 -20 7 -20 15 0 7 3 11 8 9 4 -3 7 30 7 74 0 43 3 79 7 79 5 0 8 -11
8 -25z m186 1 c20 -21 17 -28 -8 -20 -29 8 -31 10 -23 23 8 14 14 14 31 -3z
m-248 -20 c3 -13 -2 -17 -14 -14 -25 4 -31 37 -7 34 10 -2 20 -11 21 -20z
m122 14 c0 -6 10 -8 24 -4 23 5 56 -16 56 -37 0 -15 -40 -10 -46 6 -4 8 -17
15 -30 15 -15 0 -24 6 -24 15 0 8 5 15 10 15 6 0 10 -5 10 -10z m-212 -32 c-6
-18 -28 -21 -28 -4 0 9 7 16 16 16 9 0 14 -5 12 -12z m32 -10 c0 -15 3 -19 8
-11 5 8 21 10 45 6 28 -4 37 -10 37 -25 0 -20 -16 -22 -70 -7 -11 3 -14 -3
-12 -23 2 -16 -1 -28 -7 -28 -6 0 -11 5 -11 11 0 6 -8 8 -19 4 -15 -4 -20 0
-23 25 -3 20 0 30 9 30 7 0 13 -9 13 -21 0 -11 4 -17 10 -14 5 3 8 22 5 41 -2
18 0 34 5 34 6 0 10 -10 10 -22z m423 5 c-6 -14 -33 -18 -33 -5 0 12 8 19 24
19 8 0 12 -6 9 -14z m-104 -2 c18 -11 5 -31 -20 -31 -18 0 -26 20 -12 33 8 9
15 9 32 -2z m-101 -18 l23 -9 -25 -27 c-19 -21 -26 -24 -26 -12 0 9 -5 13 -10
10 -6 -4 -8 -11 -5 -16 4 -5 2 -9 -3 -9 -5 0 -8 18 -8 39 0 41 4 43 54 24z
m173 -26 c5 -20 4 -27 -7 -27 -8 0 -14 5 -14 10 0 6 -7 10 -15 10 -8 0 -15 6
-15 13 0 36 41 30 51 -6z m-74 -22 c23 -2 73 -26 73 -35 0 -17 -14 -18 -29 -2
-9 10 -35 24 -57 31 -56 18 -68 26 -59 41 5 8 14 5 31 -11 13 -12 32 -23 41
-24z m-261 -8 c8 3 17 -2 20 -11 8 -21 -1 -31 -18 -20 -7 5 -17 9 -23 9 -5 0
-11 9 -13 20 -3 16 -1 17 8 8 7 -6 19 -9 26 -6z m199 -23 c-10 -8 -22 -14 -26
-14 -15 0 -20 21 -9 35 9 11 17 12 33 3 20 -10 20 -11 2 -24z m-97 -20 c-6
-32 -25 -26 -20 6 3 21 8 28 14 22 6 -6 8 -18 6 -28z m167 17 c8 -15 -35 -35
-47 -23 -6 6 -7 15 -4 21 9 14 43 14 51 2z m-135 -26 c0 -14 -4 -25 -10 -25
-5 0 -10 11 -10 25 0 14 5 25 10 25 6 0 10 -11 10 -25z m185 -23 c-9 -9 -35 8
-35 24 0 16 2 16 20 -1 11 -10 18 -20 15 -23z m-279 15 c8 3 14 0 14 -5 0 -17
-41 -26 -51 -11 -10 17 0 34 13 21 6 -6 17 -8 24 -5z m134 -8 c0 -5 -4 -9 -10
-9 -5 0 -10 7 -10 16 0 8 5 12 10 9 6 -3 10 -10 10 -16z m190 5 c0 -9 -5 -14
-12 -12 -18 6 -21 28 -4 28 9 0 16 -7 16 -16z m53 -17 c-2 -4 -3 -11 -3 -17 0
-5 -9 -10 -20 -10 -13 0 -20 7 -20 20 0 15 6 19 23 16 12 -1 21 -6 20 -9z
m-348 -16 c-3 -6 -11 -8 -17 -5 -6 4 -5 9 3 15 16 10 23 4 14 -10z m235 -1
c21 0 70 -23 70 -32 0 -14 -57 -8 -69 6 -7 8 -21 12 -31 9 -13 -4 -20 0 -20 9
0 21 12 30 24 18 5 -5 17 -10 26 -10z m-290 -25 c0 -8 -4 -15 -10 -15 -5 0
-10 7 -10 15 0 8 5 15 10 15 6 0 10 -7 10 -15z m38 -55 c-2 -8 -13 -16 -26
-18 -17 -3 -22 2 -22 17 0 16 6 20 25 19 17 -2 25 -8 23 -18z m35 -17 c6 -32
3 -38 -12 -28 -13 8 -15 55 -2 55 5 0 11 -12 14 -27z m-23 -55 c0 -20 -15 -24
-25 -8 -4 6 -11 8 -16 5 -5 -4 -12 1 -15 10 -5 13 -9 14 -15 4 -10 -17 -21 -7
-14 13 9 22 85 1 85 -24z m61 -2 c-12 -14 -3 -56 11 -56 5 0 6 -4 3 -10 -10
-16 -25 -12 -25 8 0 14 -2 15 -10 2 -14 -22 -25 -3 -13 23 6 12 14 30 17 40 3
10 11 15 16 12 8 -5 8 -11 1 -19z m93 18 c23 -9 20 -23 -4 -21 -11 1 -20 7
-20 14 0 15 2 15 24 7z m-124 -19 c0 -8 -4 -15 -10 -15 -5 0 -10 7 -10 15 0 8
5 15 10 15 6 0 10 -7 10 -15z m80 -17 c0 -12 -3 -18 -7 -15 -3 4 -12 2 -20 -4
-17 -15 -18 12 -1 29 18 18 28 15 28 -10z m363 -6 c15 -6 27 -16 27 -22 0 -6
-5 -8 -12 -4 -6 4 -28 6 -50 6 -26 -1 -38 2 -38 11 0 27 23 30 73 9z m-488 -6
c16 7 28 -23 13 -32 -7 -4 -14 -2 -16 4 -2 6 -9 9 -17 6 -16 -6 -29 12 -19 27
4 7 10 7 16 1 6 -6 16 -8 23 -6z m159 7 c9 -9 14 -10 55 -12 36 -1 49 -29 20
-40 -26 -9 -99 24 -99 45 0 15 12 18 24 7z m164 -15 c5 -26 -34 -23 -41 3 -4
16 -1 20 16 17 12 -2 23 -11 25 -20z m-194 -17 c4 -5 3 -17 0 -26 -5 -13 -8
-14 -15 -3 -5 7 -9 19 -9 26 0 14 16 16 24 3z m164 -19 c2 -7 -3 -12 -12 -12
-9 0 -16 7 -16 16 0 17 22 14 28 -4z m-125 -12 c3 -13 0 -20 -9 -20 -8 0 -14
9 -14 20 0 11 4 20 9 20 5 0 11 -9 14 -20z m272 10 c3 -5 -1 -10 -9 -10 -9 0
-16 5 -16 10 0 6 4 10 9 10 6 0 13 -4 16 -10z m63 0 c1 -2 6 -3 11 -4 17 -2
24 -15 17 -33 -7 -17 -8 -17 -17 0 -6 9 -21 17 -34 17 -24 0 -32 10 -19 22 5
5 34 3 42 -2z m-618 -10 c0 -5 -7 -10 -15 -10 -8 0 -15 5 -15 10 0 6 7 10 15
10 8 0 15 -4 15 -10z m156 1 c29 -1 41 -51 12 -51 -10 0 -28 9 -40 19 -11 11
-27 17 -34 14 -9 -3 -12 0 -9 9 4 9 16 14 28 13 12 -1 32 -3 43 -4z m54 -22
c0 -11 -4 -17 -10 -14 -5 3 -10 13 -10 21 0 8 5 14 10 14 6 0 10 -9 10 -21z
m60 -24 c0 -17 -31 -28 -43 -16 -5 5 -7 16 -4 25 7 17 47 10 47 -9z m-273 9
c-3 -3 -12 -4 -19 -1 -8 3 -5 6 6 6 11 1 17 -2 13 -5z m323 -13 c0 -17 -12
-41 -21 -41 -5 0 -9 11 -9 25 0 16 6 25 15 25 8 0 15 -4 15 -9z m115 -48 c0
-46 -18 -60 -23 -19 -2 13 -10 27 -19 30 -12 5 -14 0 -11 -24 4 -25 1 -30 -16
-30 -16 0 -18 2 -7 9 11 7 9 10 -8 16 -15 4 -21 15 -21 36 0 30 0 30 53 27
l52 -3 0 -42z m-285 22 c0 -8 -4 -15 -10 -15 -5 0 -10 7 -10 15 0 8 5 15 10
15 6 0 10 -7 10 -15z m-50 -41 c0 -16 -16 -19 -25 -4 -8 13 4 32 16 25 5 -4 9
-13 9 -21z m49 -1 c14 -9 21 -11 17 -5 -4 7 -1 12 8 12 9 0 16 -7 16 -16 0
-13 3 -14 13 -5 15 12 27 5 27 -15 0 -7 -10 -13 -22 -12 -33 0 -98 31 -98 46
0 16 11 15 39 -5z m-139 -7 c0 -3 -4 -8 -10 -11 -5 -3 -10 -1 -10 4 0 6 5 11
10 11 6 0 10 -2 10 -4z m284 -22 c3 -9 4 -20 1 -24 -9 -15 -35 1 -35 21 0 23
25 25 34 3z m-191 -13 c5 -22 -1 -33 -14 -25 -12 7 -12 44 0 44 5 0 11 -9 14
-19z m-89 -12 c-8 -14 -24 -10 -24 6 0 9 6 12 15 9 8 -4 12 -10 9 -15z m261
-19 c8 0 15 -9 15 -20 0 -15 -7 -20 -25 -20 -18 0 -25 5 -25 20 0 11 -4 20
-10 20 -5 0 -10 -5 -10 -11 0 -7 -11 -8 -32 -3 -18 4 -41 7 -51 6 -12 0 -17 5
-15 16 2 11 11 16 23 13 11 -2 27 -4 35 -5 8 0 18 -5 22 -11 5 -6 8 -5 8 4 0
7 6 11 15 7 10 -3 15 1 16 12 0 13 3 11 9 -5 5 -13 16 -23 25 -23z m58 -11
c12 -7 34 -12 49 -11 19 0 29 -5 33 -19 7 -23 -2 -39 -13 -24 -7 10 -26 15
-72 18 -18 1 -26 9 -28 25 -4 25 1 27 31 11z m-181 -33 c-2 -9 2 -16 8 -16 6
0 9 4 5 9 -3 5 -1 12 5 16 6 3 10 -3 10 -15 0 -31 -44 -23 -48 9 -3 16 0 22
10 19 7 -3 12 -12 10 -22z m96 -26 c4 -21 2 -22 -12 -11 -22 19 -27 11 -17
-27 8 -25 7 -32 -5 -32 -8 0 -14 10 -15 23 0 12 -3 16 -6 10 -8 -21 -22 -15
-16 7 3 11 10 20 15 20 5 0 6 5 3 10 -10 16 4 30 28 26 14 -2 23 -11 25 -26z
m236 15 c4 -11 -1 -14 -19 -13 -29 3 -33 14 -7 21 9 3 18 5 18 6 1 0 4 -6 8
-14z m-114 -30 c0 -8 -4 -15 -10 -15 -5 0 -10 7 -10 15 0 8 5 15 10 15 6 0 10
-7 10 -15z m-219 -68 c-1 -12 -15 -9 -19 4 -3 6 1 10 8 8 6 -3 11 -8 11 -12z
m39 -2 c0 -8 -4 -15 -10 -15 -5 0 -10 7 -10 15 0 8 5 15 10 15 6 0 10 -7 10
-15z m68 -18 c2 -12 -4 -15 -25 -14 -18 2 -29 9 -31 20 -3 14 2 17 25 14 16
-2 29 -11 31 -20z"/>
<path d="M565 1990 c28 -12 37 -12 30 0 -3 6 -16 10 -28 9 -21 0 -21 -1 -2 -9z"/>
<path d="M801 1968 c5 -18 9 -46 9 -62 0 -16 3 -27 6 -23 9 9 -6 117 -16 117
-5 0 -4 -15 1 -32z"/>
<path d="M1111 1978 c-1 -16 4 -28 9 -28 12 0 12 8 0 35 -8 18 -9 17 -9 -7z"/>
<path d="M2000 1990 c8 -5 11 -10 5 -10 -5 0 1 -7 14 -16 18 -13 20 -19 10
-26 -10 -7 -8 -8 9 -5 12 3 22 2 22 -3 0 -4 27 -5 60 -3 55 5 171 -10 195 -25
5 -3 -1 -9 -15 -13 -20 -6 -18 -7 16 -8 22 -1 63 -12 90 -26 57 -29 61 -30 44
-10 -13 15 -2 21 16 8 5 -5 -2 2 -16 14 -26 24 -85 46 -155 59 -37 6 -38 8
-15 15 15 4 3 5 -29 2 -39 -4 -52 -3 -47 6 4 6 13 11 21 11 16 0 13 32 -3 38
-7 2 -12 -6 -12 -18 0 -20 -4 -22 -33 -16 -17 3 -47 2 -66 -4 -45 -13 -81 -3
-81 21 0 13 -7 19 -22 19 -19 0 -20 -2 -8 -10z m410 -111 c52 -27 23 -22 -35
7 -27 13 -39 21 -25 18 14 -4 41 -15 60 -25z"/>
<path d="M2306 1992 c7 -4 13 -16 15 -26 3 -13 20 -23 54 -33 28 -8 58 -22 68
-31 9 -8 20 -12 24 -9 3 4 1 7 -6 7 -7 0 -11 7 -8 14 4 10 1 13 -7 10 -8 -3
-17 1 -22 8 -4 7 -4 10 1 6 4 -4 16 -1 27 6 41 29 149 -21 133 -62 -5 -12 -3
-13 10 -2 27 22 36 47 26 72 -11 26 -14 18 -12 -27 2 -23 0 -27 -8 -15 -6 8
-11 22 -11 31 0 9 -6 17 -12 16 -50 -2 -88 4 -83 13 3 6 1 10 -5 10 -6 0 -8 5
-5 10 3 6 -1 10 -9 10 -9 0 -16 -7 -16 -15 0 -21 -27 -30 -45 -15 -13 11 -21
10 -41 -1 -21 -11 -27 -11 -34 1 -5 8 -6 18 -4 22 3 4 -5 8 -18 8 -13 0 -18
-3 -12 -8z"/>
<path d="M1658 1963 c7 -3 16 -2 19 1 4 3 -2 6 -13 5 -11 0 -14 -3 -6 -6z"/>
<path d="M2638 1941 c3 -20 -3 -41 -19 -63 -21 -30 -21 -32 -2 -15 13 11 23
14 27 8 4 -5 -2 -15 -11 -21 -17 -11 -17 -11 0 -6 10 3 16 2 13 -3 -3 -5 3
-20 14 -33 11 -14 18 -27 15 -29 -2 -3 14 -4 36 -4 21 0 39 -2 39 -6 0 -4 42
-7 93 -8 78 -1 96 1 109 16 16 17 11 18 -119 15 -155 -4 -171 3 -172 66 -2 74
-7 106 -17 109 -7 2 -9 -8 -6 -26z"/>
<path d="M2674 1958 c-6 -9 14 -11 60 -8 15 1 26 -2 23 -7 -3 -5 -23 -10 -43
-11 -21 -2 -40 -5 -43 -7 -13 -14 22 -20 117 -20 146 -1 229 21 120 32 -24 2
-56 4 -73 4 -20 0 -26 2 -17 8 11 7 11 9 -1 14 -7 3 -20 1 -28 -4 -12 -7 -12
-9 0 -9 8 0 11 -3 8 -6 -4 -4 -13 -1 -21 5 -16 14 -95 21 -102 9z"/>
<path d="M1720 1952 c0 -4 9 -8 19 -8 11 0 17 4 15 8 -3 4 -12 8 -20 8 -8 0
-14 -4 -14 -8z"/>
<path d="M1895 1931 c-6 -11 -12 -11 -110 -11 -82 0 -145 -8 -145 -20 0 -5 57
-7 128 -5 121 3 141 -1 142 -27 0 -4 -14 -14 -30 -23 -29 -15 -31 -15 -42 10
-11 25 -28 34 -28 14 0 -20 21 -49 36 -49 8 0 12 -5 9 -10 -4 -7 -12 -7 -23
-1 -19 11 -72 -15 -72 -35 0 -6 -7 -17 -15 -24 -8 -7 -12 -17 -9 -22 7 -11 19
-1 19 15 0 7 7 12 15 12 8 1 14 7 12 14 -1 7 2 10 8 6 6 -4 30 5 54 18 25 14
48 21 53 17 4 -4 17 -4 28 1 19 8 19 9 -2 6 -25 -2 -32 15 -7 19 9 1 19 6 22
10 4 4 -1 4 -10 1 -10 -4 -18 -4 -18 0 0 3 8 12 18 19 16 12 16 13 0 19 -10 4
-14 13 -11 22 5 12 3 14 -7 8 -10 -6 -12 -4 -7 8 7 18 2 23 -8 8z m-65 -135
c0 -2 -7 -7 -16 -10 -8 -3 -12 -2 -9 4 6 10 25 14 25 6z"/>
<path d="M2510 1917 c50 -13 61 -34 33 -62 -13 -13 -14 -17 -3 -13 8 2 19 16
24 31 14 38 -7 57 -58 56 l-41 -1 45 -11z"/>
<path d="M2103 1903 c9 -2 23 -2 30 0 6 3 -1 5 -18 5 -16 0 -22 -2 -12 -5z"/>
<path d="M2205 1899 c-28 -6 -26 -7 13 -8 42 -1 53 3 30 11 -7 2 -26 1 -43 -3z"/>
<path d="M2030 1890 c-12 -8 -11 -10 7 -10 12 0 25 5 28 10 8 13 -15 13 -35 0z"/>
<path d="M1609 1873 c-1 -10 -1 -21 0 -25 0 -4 2 -21 3 -37 2 -22 7 -31 20
-31 25 0 31 -16 12 -35 -20 -20 -11 -33 11 -15 11 9 19 10 28 1 10 -8 20 -4
41 18 22 22 24 30 12 34 -8 3 -17 -1 -21 -10 -4 -13 -8 -14 -17 -5 -7 7 -20
12 -29 12 -26 0 -43 28 -42 71 1 38 -16 57 -18 22z"/>
<path d="M2157 1883 c-11 -11 -8 -21 9 -27 13 -5 14 -4 6 7 -7 8 -9 17 -5 20
3 4 4 7 1 7 -2 0 -8 -3 -11 -7z"/>
<path d="M2970 1844 c0 -26 4 -32 15 -28 18 7 20 24 3 24 -9 0 -9 3 0 12 16
16 15 25 -3 25 -10 0 -15 -11 -15 -33z"/>
<path d="M2565 1841 c-3 -5 0 -13 6 -17 8 -5 9 -3 4 6 -5 8 -3 11 6 8 8 -3 14
-9 14 -14 0 -16 16 -34 25 -29 13 8 42 -40 56 -93 7 -26 13 -38 15 -27 1 14 4
11 9 -10 11 -45 11 -77 0 -70 -5 3 5 -17 23 -46 30 -49 32 -58 32 -145 0 -51
3 -87 6 -82 11 17 28 -1 35 -37 6 -36 17 -43 77 -55 44 -9 41 0 -6 15 -27 8
-35 18 -48 60 -10 31 -18 44 -22 35 -4 -10 -6 -8 -6 8 -1 12 2 21 7 20 4 0 15
2 24 6 9 4 53 6 97 4 56 -2 81 1 81 8 0 23 -25 32 -72 25 -27 -5 -48 -7 -49
-7 -1 1 -2 24 -3 51 -1 28 -7 59 -13 70 -19 32 -25 11 -8 -29 16 -38 12 -78
-10 -96 -11 -9 -11 -4 -3 28 7 29 6 47 -5 73 l-14 34 4 -45 c3 -28 -1 -58 -10
-80 l-16 -35 6 46 c6 50 -8 105 -39 157 -30 50 -31 33 -2 -26 18 -36 26 -68
26 -108 1 -72 -16 -90 -19 -19 -1 60 -19 125 -34 125 -6 0 -8 4 -4 9 3 5 1 12
-5 16 -5 3 -7 18 -4 33 6 32 -19 108 -45 137 -11 11 -21 29 -23 40 -2 10 -18
30 -37 42 -37 25 -47 28 -56 14z"/>
<path d="M2330 1830 c0 -4 15 -10 33 -13 17 -4 43 -9 57 -13 20 -5 23 -4 13 6
-13 14 -103 31 -103 20z"/>
<path d="M850 1804 c0 -27 34 -64 60 -63 8 0 5 4 -7 9 -14 6 -24 21 -29 44 -7
42 -24 48 -24 10z"/>
<path d="M910 1801 c0 -17 5 -31 10 -31 6 0 10 11 10 24 0 14 -4 28 -10 31 -6
4 -10 -7 -10 -24z"/>
<path d="M1101 1794 c0 -11 3 -14 6 -6 3 7 2 16 -1 19 -3 4 -6 -2 -5 -13z"/>
<path d="M2570 1806 c0 -2 8 -10 18 -17 15 -13 16 -12 3 4 -13 16 -21 21 -21
13z"/>
<path d="M1786 1735 c-96 -66 -136 -86 -81 -40 17 13 25 24 19 25 -6 0 -21
-11 -34 -25 -13 -14 -20 -25 -16 -25 5 0 -8 -18 -27 -39 -41 -46 -67 -92 -66
-118 0 -10 8 0 17 23 30 71 48 89 97 93 6 1 4 5 -4 10 -9 6 -10 11 -2 15 6 4
11 4 11 1 0 -3 15 8 33 25 17 17 60 49 95 71 56 38 70 49 58 49 -3 0 -48 -29
-100 -65z"/>
<path d="M2610 1777 c0 -4 7 -18 16 -32 17 -26 20 -60 12 -150 -3 -33 -4 -45
-1 -27 2 17 9 32 14 32 6 0 7 4 4 10 -3 5 -1 19 5 30 15 28 5 69 -26 111 -13
18 -24 30 -24 26z"/>
<path d="M2347 1725 c-9 -19 -15 -35 -12 -35 7 0 37 61 33 66 -3 2 -12 -12
-21 -31z"/>
<path d="M2735 1730 c8 -16 15 -43 15 -59 0 -17 10 -40 23 -54 12 -14 30 -36
40 -50 10 -16 23 -24 32 -21 8 4 18 -1 21 -10 5 -13 9 -14 20 -5 11 9 18 8 29
-1 13 -11 14 -10 9 4 -5 12 -14 16 -31 13 -13 -2 -26 0 -29 5 -3 5 -12 7 -19
4 -24 -9 -38 19 -23 46 7 13 16 25 20 28 4 3 6 19 5 35 -2 32 -29 58 -61 60
-10 1 -24 9 -31 18 -22 30 -37 20 -20 -13z m81 -67 c4 -37 -3 -44 -33 -32 -17
6 -23 16 -23 39 0 28 3 31 26 28 22 -2 27 -9 30 -35z"/>
<path d="M988 1720 c-3 -19 1 -35 10 -42 12 -10 13 -6 8 27 -8 50 -12 53 -18
15z"/>
<path d="M1547 1737 c-23 -16 -32 -74 -18 -111 7 -16 14 -26 18 -22 3 3 12 1
20 -5 11 -10 11 -16 -2 -36 -11 -16 -15 -38 -12 -69 4 -37 2 -47 -16 -59 -15
-11 -17 -15 -6 -15 24 0 52 56 39 79 -11 22 -6 43 22 84 l19 27 -23 2 c-13 0
-29 1 -35 1 -7 -1 -10 3 -7 8 3 5 0 18 -6 29 -9 17 -7 29 9 61 23 43 23 45 -2
26z"/>
<path d="M2441 1725 c0 -24 2 -26 8 -11 6 17 10 15 34 -14 15 -17 30 -42 33
-56 3 -13 10 -24 15 -24 18 0 -14 59 -51 95 l-40 39 1 -29z"/>
<path d="M2597 1737 c-11 -29 -9 -43 4 -30 6 6 9 19 7 29 -3 18 -4 18 -11 1z"/>
<path d="M1050 1711 c0 -17 2 -31 4 -31 8 0 13 51 5 56 -5 3 -9 -9 -9 -25z"/>
<path d="M1886 1731 c-4 -5 3 -7 14 -4 23 6 26 13 6 13 -8 0 -17 -4 -20 -9z"/>
<path d="M1560 1709 c-17 -32 -3 -78 27 -85 13 -4 29 -2 35 4 9 9 6 10 -9 8
-11 -2 -26 0 -34 5 -10 6 -6 9 16 9 45 0 60 13 46 39 -15 27 -31 27 -23 -1 4
-17 2 -20 -12 -15 -11 5 -15 3 -10 -4 4 -7 1 -10 -7 -7 -8 3 -13 18 -13 37 2
36 -1 39 -16 10z"/>
<path d="M2872 1698 c-13 -5 74 -11 104 -7 4 0 11 -5 15 -13 6 -10 9 -8 9 7 0
18 -7 20 -55 20 -31 0 -63 -3 -73 -7z"/>
<path d="M2594 1654 c12 -24 22 -40 24 -35 4 11 -24 67 -36 75 -4 3 1 -15 12
-40z"/>
<path d="M1106 1677 c3 -10 9 -15 12 -12 3 3 0 11 -7 18 -10 9 -11 8 -5 -6z"/>
<path d="M2450 1653 c0 -24 2 -43 4 -43 8 0 12 60 4 72 -4 8 -8 -4 -8 -29z"/>
<path d="M2211 1654 c0 -11 3 -14 6 -6 3 7 2 16 -1 19 -3 4 -6 -2 -5 -13z"/>
<path d="M2470 1636 c0 -9 5 -16 10 -16 6 0 10 4 10 9 0 6 -4 13 -10 16 -5 3
-10 -1 -10 -9z"/>
<path d="M2890 1623 c0 -7 4 -13 8 -13 4 0 8 -10 9 -22 1 -13 11 -30 23 -40
11 -9 20 -21 20 -26 0 -6 9 -6 25 1 20 10 25 19 25 50 0 21 -6 45 -14 53 -19
18 -96 16 -96 -3z m54 -5 c-3 -4 -9 -8 -15 -8 -5 0 -9 4 -9 8 0 5 7 9 15 9 8
0 12 -4 9 -9z m44 -45 c-4 -34 -32 -42 -48 -13 -14 26 -5 40 26 40 22 0 25 -4
22 -27z"/>
<path d="M1817 1615 c-8 -8 -17 -12 -19 -9 -8 7 -80 -26 -137 -64 -36 -24 -60
-49 -73 -76 -11 -23 -30 -58 -42 -79 -31 -51 -32 -108 -4 -133 19 -16 20 -16
9 -1 -22 27 -9 109 25 159 15 24 27 48 26 54 -4 18 61 71 126 104 70 35 94 34
38 -2 -20 -13 -34 -29 -31 -36 3 -7 0 -10 -5 -7 -11 7 -50 -69 -49 -95 0 -10
3 -9 10 5 7 16 8 12 4 -14 -3 -18 -5 -38 -5 -43 0 -5 -4 -7 -9 -3 -6 3 -6 -7
0 -27 12 -45 11 -47 -11 -19 -11 13 -20 19 -20 15 0 -13 101 -104 114 -104 6
1 -5 14 -24 30 -19 17 -29 30 -22 30 6 0 9 7 6 15 -4 8 -3 32 1 53 5 25 9 32
14 21 5 -13 10 -9 24 18 9 19 13 32 7 28 -5 -3 -10 -2 -10 4 0 5 8 15 18 20 9
6 12 11 6 11 -17 0 -41 -31 -64 -83 -12 -26 -22 -47 -24 -47 -2 0 1 21 5 47 5
26 6 56 3 66 -4 14 -3 17 7 12 9 -6 11 -2 7 13 -4 15 -2 22 7 22 8 0 16 9 20
20 3 11 16 28 28 38 29 24 72 72 64 72 -3 0 -12 -7 -20 -15z m-65 -207 c-7 -7
-12 -8 -12 -2 0 6 3 14 7 17 3 4 9 5 12 2 2 -3 -1 -11 -7 -17z"/>
<path d="M2531 1594 c0 -11 3 -14 6 -6 3 7 2 16 -1 19 -3 4 -6 -2 -5 -13z"/>
<path d="M2141 1580 c0 -8 4 -22 9 -30 12 -18 12 -2 0 25 -6 13 -9 15 -9 5z"/>
<path d="M634 1496 c1 -80 6 -100 20 -77 4 5 14 8 24 6 9 -2 23 -4 31 -4 8 -1
12 -4 9 -7 -9 -8 25 -42 35 -36 5 2 4 -5 -2 -16 -6 -11 -11 -28 -11 -36 0 -18
35 -22 46 -5 4 8 0 9 -15 4 -16 -5 -21 -2 -21 10 0 12 5 15 16 11 9 -3 22 -6
30 -6 8 0 14 -8 14 -17 1 -22 25 -55 33 -46 4 3 -1 11 -10 18 -10 7 -14 19
-10 29 9 23 26 20 38 -6 8 -20 9 -19 3 7 -3 16 -11 33 -17 37 -9 6 -9 10 0 16
17 11 -20 43 -37 32 -9 -5 -9 -9 -1 -14 13 -8 15 -46 2 -46 -5 0 -14 7 -21 15
-11 13 -11 20 0 40 7 14 17 25 21 25 10 0 -36 46 -64 65 -12 7 -35 16 -51 19
-33 6 -29 3 -48 39 -13 27 -14 24 -14 -57z m36 -1 c0 -8 -4 -15 -9 -15 -13 0
-22 16 -14 24 11 11 23 6 23 -9z m45 -9 c11 -7 25 -13 30 -13 6 0 11 -7 13
-16 3 -12 -3 -15 -25 -13 -15 2 -34 4 -40 5 -14 1 -18 51 -5 51 4 0 16 -6 27
-14z m75 -46 c0 -5 -4 -10 -10 -10 -5 0 -10 5 -10 10 0 6 5 10 10 10 6 0 10
-4 10 -10z m-29 -33 c-1 -12 -15 -9 -19 4 -3 6 1 10 8 8 6 -3 11 -8 11 -12z"/>
<path d="M1901 1554 c-26 -26 -26 -40 -1 -21 22 17 44 47 34 46 -5 -1 -20 -12
-33 -25z"/>
<path d="M2170 1568 c0 -10 30 -78 35 -78 6 0 -16 63 -26 75 -5 5 -9 6 -9 3z"/>
<path d="M2683 1556 c9 -7 17 -18 17 -25 0 -6 5 -11 10 -11 17 0 -6 37 -27 44
-17 6 -17 5 0 -8z"/>
<path d="M832 1535 c0 -11 4 -31 8 -45 l8 -25 0 25 c0 14 -3 34 -8 45 -9 20
-9 20 -8 0z"/>
<path d="M881 1484 c0 -11 3 -14 6 -6 3 7 2 16 -1 19 -3 4 -6 -2 -5 -13z"/>
<path d="M1621 1448 c-82 -111 -90 -156 -37 -212 18 -20 29 -36 23 -36 -6 0
-8 -3 -4 -6 3 -3 10 -3 16 0 6 4 -4 25 -24 52 -41 53 -41 55 -15 113 24 51 34
51 18 -1 -16 -54 -3 -103 37 -135 34 -28 45 -56 25 -68 -7 -4 -7 -12 -1 -23 7
-12 4 -23 -10 -38 -19 -21 -19 -21 0 -65 22 -49 48 -85 56 -77 3 2 -9 31 -27
63 l-31 58 24 20 c13 11 23 24 22 28 -3 8 11 13 29 10 4 0 5 12 2 27 -6 36 5
51 44 54 31 2 32 3 26 38 -4 19 -11 43 -15 52 -5 9 -10 34 -10 55 -2 32 -3 34
-6 9 -3 -16 0 -48 6 -72 15 -59 8 -73 -39 -71 -31 1 -42 7 -55 30 -9 16 -19
26 -22 23 -3 -3 6 -21 21 -40 34 -45 36 -96 4 -96 -21 1 -21 2 -5 11 23 14 22
29 -8 69 -14 19 -25 42 -25 52 0 10 -5 18 -11 18 -8 0 -8 4 -2 13 5 6 15 39
22 72 7 33 16 75 21 93 12 46 -4 40 -49 -20z m27 0 c-1 -38 -21 -129 -30 -134
-6 -4 -4 94 3 104 1 1 2 5 4 10 4 15 17 42 20 42 2 0 4 -10 3 -22z"/>
<path d="M1818 1493 c7 -3 16 -2 19 1 4 3 -2 6 -13 5 -11 0 -14 -3 -6 -6z"/>
<path d="M2895 1490 c4 -6 11 -8 16 -5 14 9 11 15 -7 15 -8 0 -12 -5 -9 -10z"/>
<path d="M2295 1454 c17 -8 41 -28 53 -42 16 -19 21 -21 14 -7 -14 28 -42 51
-72 59 -22 6 -21 5 5 -10z"/>
<path d="M1939 1443 c-13 -16 -12 -17 4 -4 16 13 21 21 13 21 -2 0 -10 -8 -17
-17z"/>
<path d="M2250 1446 c0 -2 7 -7 16 -10 8 -3 12 -2 9 4 -6 10 -25 14 -25 6z"/>
<path d="M1982 1420 c-14 -34 -69 -85 -112 -104 -34 -15 -34 -15 -5 -10 24 5
27 3 15 -6 -10 -8 -11 -10 -2 -8 8 2 13 7 12 11 0 5 17 22 39 38 46 33 75 72
68 91 -3 8 -9 3 -15 -12z"/>
<path d="M1944 1415 c-4 -8 -12 -15 -20 -15 -8 0 -14 -6 -14 -14 0 -7 -13 -19
-30 -26 -16 -7 -35 -19 -42 -28 -12 -14 -10 -14 12 -2 41 21 89 59 100 80 6
11 8 20 5 20 -3 0 -8 -7 -11 -15z"/>
<path d="M2016 1404 c-4 -14 -5 -28 -3 -31 3 -2 8 8 11 23 4 14 5 28 3 31 -3
2 -8 -8 -11 -23z"/>
<path d="M2110 1422 c0 -20 60 -90 97 -113 19 -12 40 -28 48 -36 8 -8 15 -11
15 -6 0 5 -18 27 -40 48 -22 21 -40 35 -40 31 0 -5 -7 -3 -15 4 -8 7 -12 17
-8 23 3 6 1 7 -5 3 -7 -4 -13 -2 -13 3 -1 6 -2 16 -3 21 0 6 -5 10 -10 9 -5 0
-13 5 -17 13 -7 10 -9 10 -9 0z"/>
<path d="M881 1393 c0 -18 1 -33 3 -33 2 0 13 -3 23 -6 16 -5 17 -4 1 8 -9 8
-18 25 -21 38 -3 21 -5 19 -6 -7z"/>
<path d="M2052 1389 c-13 -16 -29 -29 -36 -29 -7 0 -21 -9 -30 -19 -10 -11
-26 -18 -37 -16 -11 2 -17 0 -14 -6 16 -25 102 15 129 62 10 16 22 26 28 23 7
-4 8 -2 4 4 -11 17 -18 14 -44 -19z"/>
<path d="M2734 1406 c-3 -8 -1 -23 5 -33 9 -15 10 -13 11 15 0 34 -7 42 -16
18z"/>
<path d="M953 1347 c0 -7 11 -13 24 -13 13 -1 34 -5 48 -8 14 -4 25 -2 25 4 0
5 -14 10 -31 10 -17 0 -38 4 -48 9 -12 7 -18 6 -18 -2z"/>
<path d="M1786 1345 c-9 -26 -7 -32 5 -12 6 10 9 21 6 23 -2 3 -7 -2 -11 -11z"/>
<path d="M2993 1325 c0 -22 2 -30 4 -17 2 12 2 30 0 40 -3 9 -5 -1 -4 -23z"/>
<path d="M80 1346 c0 -2 7 -7 16 -10 8 -3 12 -2 9 4 -6 10 -25 14 -25 6z"/>
<path d="M880 1345 c0 -6 11 -95 25 -200 14 -104 25 -202 25 -217 l0 -27 -26
24 c-15 14 -30 25 -35 25 -10 0 -39 -29 -39 -40 0 -4 -16 -10 -36 -12 -29 -3
-37 0 -43 15 -6 17 -8 16 -19 -8 -10 -23 -10 -25 5 -23 18 3 31 -36 29 -88 -1
-32 -32 -46 -48 -22 -7 10 -8 8 -6 -7 3 -15 10 -19 27 -17 12 2 31 -4 42 -14
10 -9 19 -13 19 -8 0 5 5 2 10 -6 6 -10 10 -11 10 -2 0 6 7 12 16 12 12 0 15
8 13 34 -2 22 3 42 14 54 9 10 17 24 17 30 0 7 3 11 8 11 25 -4 23 4 -5 21
-39 23 -46 55 -10 45 12 -4 29 -15 38 -25 9 -11 19 -17 22 -14 2 3 10 -41 16
-98 7 -57 15 -127 20 -155 4 -29 6 -55 4 -57 -8 -8 -63 18 -63 30 0 6 -17 14
-37 18 -53 8 -73 7 -48 -4 32 -14 -50 -12 -98 2 -35 11 -41 10 -53 -7 -18 -24
-13 -39 12 -43 19 -4 19 -4 0 11 -19 14 -19 15 3 27 15 8 26 9 30 2 6 -10 95
-24 147 -24 13 0 24 -4 24 -9 0 -5 5 -8 11 -7 19 5 21 -20 2 -25 -12 -3 -9 -5
9 -6 20 -1 26 3 22 14 -10 26 23 17 46 -12 13 -17 19 -21 16 -10 -3 11 -2 16
4 12 6 -4 23 -9 38 -11 36 -7 72 -31 69 -47 -1 -6 4 -11 11 -10 11 3 16 -10
13 -30 -1 -5 3 -6 8 -3 8 5 18 -19 27 -64 2 -8 -3 -21 -9 -29 -10 -12 -9 -13
3 -6 8 4 4 -4 -9 -18 -29 -32 -36 -34 -22 -8 11 21 -2 44 -31 54 -14 5 -18 1
-18 -20 0 -15 7 -34 16 -44 15 -17 15 -20 -10 -49 -14 -18 -26 -38 -26 -46 0
-10 -12 -13 -49 -11 -27 1 -48 7 -48 12 1 6 -5 10 -13 10 -8 0 -14 -5 -13 -12
2 -9 -4 -10 -20 -5 -12 5 -50 7 -84 5 -34 -1 -65 2 -68 7 -4 6 -11 10 -16 10
-6 0 -7 -4 -4 -10 11 -18 -4 -11 -25 12 l-20 22 0 -26 c0 -24 3 -25 78 -31 42
-4 84 -7 92 -8 8 -1 57 -1 108 -1 78 2 94 5 99 20 11 33 116 132 140 132 13 0
32 5 42 12 32 19 238 -21 334 -65 82 -38 106 -42 35 -6 -24 12 -45 25 -48 28
-8 12 -112 40 -170 47 -30 3 -72 10 -92 15 -23 6 -45 6 -55 1 -10 -5 -30 -12
-45 -16 -24 -5 -27 -3 -33 27 -4 17 -17 49 -28 70 -22 40 -98 97 -128 97 -11
0 -19 10 -23 27 -10 54 -36 231 -72 493 -20 146 -40 269 -45 275 -6 6 -9 6 -9
0z m-60 -516 c0 -26 5 -51 10 -54 6 -3 10 -13 10 -21 0 -16 -28 -18 -50 -4
-13 9 -13 12 3 24 13 10 15 16 7 21 -7 4 -9 18 -6 31 5 17 2 24 -9 24 -8 0
-15 6 -15 14 0 8 10 14 25 14 23 0 25 -4 25 -49z m35 18 c0 -26 -20 -25 -23 2
-3 16 1 22 10 19 7 -3 13 -12 13 -21z m258 -501 c6 -16 -2 -28 -14 -20 -12 7
-11 34 0 34 5 0 11 -6 14 -14z"/>
<path d="M2496 1315 c-49 -17 -76 -43 -76 -72 0 -17 6 -23 22 -23 20 0 21 1 4
13 -16 12 -16 14 3 39 37 46 104 43 137 -7 41 -63 -8 -225 -68 -225 -12 0 -16
-4 -12 -12 5 -8 -5 -9 -35 -5 -35 4 -40 3 -30 -9 6 -8 17 -14 24 -14 7 0 15
-13 19 -30 3 -16 10 -30 16 -30 7 0 8 6 1 18 -5 9 -9 22 -9 27 1 11 38 40 51
40 4 0 11 5 15 11 10 15 68 45 75 38 8 -8 40 56 44 86 2 14 10 45 18 69 8 25
15 47 15 50 -1 10 -34 -53 -36 -69 -11 -68 -19 -86 -47 -111 -43 -40 -58 -37
-19 4 32 33 43 55 20 41 -7 -5 -3 5 10 20 27 35 30 57 2 25 l-19 -24 -1 25 c0
41 -32 106 -61 122 -22 13 -32 13 -63 3z"/>
<path d="M1805 1302 c-7 -24 8 -57 32 -70 18 -10 53 -4 53 9 0 5 -6 6 -14 3
-9 -3 -23 10 -39 36 -22 38 -26 40 -32 22z m19 -28 c3 -8 2 -12 -4 -9 -6 3
-10 10 -10 16 0 14 7 11 14 -7z"/>
<path d="M2076 1299 c3 -5 -10 -9 -28 -9 -48 0 -110 -25 -127 -49 -7 -12 -12
-23 -10 -25 4 -3 51 9 129 33 14 4 35 5 45 1 11 -4 28 -5 39 -2 16 4 13 8 -15
24 l-34 19 35 -7 c27 -5 32 -3 24 6 -13 13 -66 21 -58 9z m9 -37 c-3 -3 -11 0
-18 7 -9 10 -8 11 6 5 10 -3 15 -9 12 -12z m-38 2 c-10 -11 -58 -13 -51 -3 3
5 17 9 31 9 15 0 23 -3 20 -6z"/>
<path d="M750 1263 c0 -36 9 -46 30 -33 12 7 12 12 3 21 -8 8 -9 18 -3 28 6
13 4 17 -11 17 -15 0 -19 -7 -19 -33z"/>
<path d="M2765 1258 c-4 -13 -8 -28 -10 -35 -2 -7 -13 -26 -25 -43 -12 -17
-20 -33 -17 -36 10 -10 56 58 63 92 7 40 0 56 -11 22z"/>
<path d="M2856 1260 c6 -6 41 -12 77 -14 52 -3 67 -1 67 10 0 11 -18 14 -77
14 -53 0 -74 -3 -67 -10z"/>
<path d="M2377 1249 c7 -7 15 -10 18 -7 3 3 -2 9 -12 12 -14 6 -15 5 -6 -5z"/>
<path d="M2167 1236 c-37 -7 -70 -16 -75 -21 -4 -4 7 -5 23 -2 17 3 53 9 80
12 52 6 101 26 60 24 -11 -1 -50 -7 -88 -13z"/>
<path d="M2475 1230 c-3 -5 1 -10 9 -10 9 0 16 5 16 10 0 6 -4 10 -9 10 -6 0
-13 -4 -16 -10z"/>
<path d="M2518 1233 c7 -3 16 -2 19 1 4 3 -2 6 -13 5 -11 0 -14 -3 -6 -6z"/>
<path d="M501 1214 c0 -11 3 -14 6 -6 3 7 2 16 -1 19 -3 4 -6 -2 -5 -13z"/>
<path d="M2048 1223 c6 -2 18 -2 25 0 6 3 1 5 -13 5 -14 0 -19 -2 -12 -5z"/>
<path d="M2569 1225 c-4 -5 -6 -32 -7 -60 0 -42 2 -46 10 -25 10 26 7 102 -3
85z"/>
<path d="M2801 1207 c0 -16 -5 -36 -10 -46 -9 -16 -4 -18 42 -18 l52 -1 -45 7
-45 7 63 4 c35 3 72 2 83 -2 10 -4 19 -3 19 2 0 9 -22 17 -66 24 -10 2 -25 -1
-31 -7 -9 -6 -13 -6 -13 2 0 8 -8 10 -19 6 -16 -5 -20 0 -24 22 l-4 28 -2 -28z"/>
<path d="M2205 1203 c-69 -21 -75 -28 -69 -76 7 -51 -25 -105 -70 -120 -79
-26 -160 90 -110 161 19 28 39 30 24 3 -8 -16 -6 -21 10 -26 11 -3 20 -14 20
-23 1 -14 4 -13 20 6 24 29 43 19 38 -19 -3 -15 -1 -26 4 -23 11 7 10 41 -2
64 -6 12 -17 16 -30 13 -11 -3 -17 -9 -14 -14 3 -5 -2 -6 -10 -3 -18 7 -21 30
-6 39 6 4 7 -1 3 -12 -6 -16 -5 -16 10 -4 9 7 15 17 12 21 -2 4 14 4 36 0 27
-5 37 -4 30 3 -12 12 -140 15 -138 3 1 -5 -4 -11 -12 -14 -9 -3 -11 0 -6 9 5
8 -5 2 -21 -12 -34 -31 -93 -52 -120 -43 -15 6 -17 4 -7 -6 17 -18 99 4 125
33 18 20 19 20 12 2 -20 -51 -8 -111 28 -147 22 -23 37 -28 74 -28 39 0 51 5
80 34 19 19 34 43 34 54 0 11 9 40 20 65 18 40 25 46 60 52 22 4 42 11 46 16
7 12 -11 10 -71 -8z m-42 -53 c-3 -11 -7 -20 -9 -20 -2 0 -4 9 -4 20 0 11 4
20 9 20 5 0 7 -9 4 -20z"/>
<path d="M2698 1181 c-9 -22 -13 -42 -10 -46 3 -3 12 13 20 36 18 53 10 61
-10 10z"/>
<path d="M863 1181 c5 -42 17 -52 17 -13 0 17 -4 34 -10 37 -6 4 -9 -6 -7 -24z"/>
<path d="M2762 1175 c-12 -19 -18 -35 -12 -35 13 0 43 46 38 59 -1 6 -13 -5
-26 -24z"/>
<path d="M1820 1186 c0 -9 5 -16 10 -16 6 0 10 4 10 9 0 6 -4 13 -10 16 -5 3
-10 -1 -10 -9z"/>
<path d="M2296 1158 c4 -32 1 -56 -9 -77 -19 -38 -6 -42 14 -5 14 27 14 72 -2
108 -6 14 -7 6 -3 -26z"/>
<path d="M2412 1180 c0 -14 2 -19 5 -12 2 6 2 18 0 25 -3 6 -5 1 -5 -13z"/>
<path d="M1760 1170 c0 -11 -5 -20 -11 -20 -5 0 -7 -5 -4 -10 4 -6 12 -4 21 5
9 8 19 15 24 15 4 0 10 7 14 15 4 11 -1 15 -19 15 -18 0 -25 -5 -25 -20z"/>
<path d="M2105 1160 c3 -5 8 -10 11 -10 2 0 4 5 4 10 0 6 -5 10 -11 10 -5 0
-7 -4 -4 -10z"/>
<path d="M2475 1147 c20 -15 13 -37 -11 -37 -9 0 -14 -6 -12 -12 5 -15 58 -24
58 -10 0 6 -10 8 -22 4 -23 -5 -23 -5 -4 16 15 18 16 24 6 37 -7 8 -17 15 -23
15 -6 0 -3 -6 8 -13z"/>
<path d="M2898 1143 c7 -3 16 -2 19 1 4 3 -2 6 -13 5 -11 0 -14 -3 -6 -6z"/>
<path d="M2968 1134 c-4 -4 -5 -17 -2 -29 9 -35 -15 -44 -125 -46 -110 -2
-121 3 -121 48 0 16 -4 21 -15 17 -21 -8 -19 -25 8 -60 21 -28 24 -29 102 -27
61 1 74 -1 55 -8 -14 -6 -33 -8 -42 -5 -10 2 -16 0 -12 -5 7 -13 184 -12 184
1 0 6 -24 11 -52 11 -37 1 -45 3 -28 8 50 12 62 25 58 65 -2 21 -6 35 -10 30z"/>
<path d="M1990 1117 c0 -19 56 -67 79 -67 27 0 61 29 61 53 0 21 -1 21 -13 -3
-20 -39 -67 -39 -101 0 -16 19 -26 26 -26 17z"/>
<path d="M1713 1099 l-42 -20 15 -41 c19 -56 52 -106 76 -119 11 -6 36 -8 55
-4 30 5 35 4 29 -10 -4 -10 -2 -14 5 -9 7 4 9 0 5 -13 -4 -12 4 -33 25 -61 31
-43 49 -53 49 -28 0 23 -11 46 -23 46 -7 0 -7 -4 1 -12 7 -7 12 -16 12 -21 0
-5 -7 -2 -15 7 -22 22 -18 45 10 58 l26 12 -25 20 c-19 17 -23 27 -19 54 3 21
11 32 22 32 14 0 14 2 1 10 -24 16 -27 12 -35 -37 -6 -41 -4 -49 17 -65 12 -9
18 -18 12 -18 -6 0 -23 9 -37 20 -25 20 -25 21 -10 57 9 23 13 54 10 80 -3 33
-1 46 12 54 14 8 13 9 -4 7 -17 -3 -20 -10 -17 -55 3 -55 -12 -108 -28 -98 -5
3 -10 1 -10 -5 0 -7 -15 -10 -37 -8 -30 2 -42 10 -60 37 -13 19 -23 40 -23 47
0 18 53 34 74 22 15 -8 14 -4 -5 21 -25 34 -25 34 -54 20 -17 -8 -15 -8 8 -4
15 3 27 1 27 -5 0 -5 -8 -10 -18 -10 -10 0 -23 -5 -30 -12 -9 -9 -12 -7 -12
10 0 16 10 26 36 37 48 20 53 19 47 -7 -4 -18 -2 -20 5 -9 8 11 12 6 18 -25 3
-21 11 -45 17 -51 13 -18 37 -16 37 2 0 8 -5 14 -11 13 -6 -2 -15 7 -20 20 -6
15 -5 21 1 17 6 -3 10 3 10 14 0 13 -12 26 -30 36 -38 20 -47 19 -97 -6z m187
-223 c0 -11 -19 -15 -25 -6 -3 5 1 10 9 10 9 0 16 -2 16 -4z"/>
<path d="M1109 1052 c5 -34 6 -35 9 -8 2 16 0 32 -5 37 -5 5 -7 -7 -4 -29z"/>
<path d="M2403 1054 c-20 -31 -20 -32 -2 -21 18 11 35 44 27 52 -1 1 -13 -12
-25 -31z"/>
<path d="M2672 1035 c-1 -42 1 -45 24 -45 21 0 24 3 19 23 -9 32 -27 67 -35
67 -4 0 -8 -20 -8 -45z m28 -11 c0 -14 -4 -22 -10 -19 -5 3 -9 17 -8 30 3 31
18 21 18 -11z"/>
<path d="M2329 1023 c-2 -24 -2 -43 1 -43 4 0 16 19 29 43 12 23 16 34 8 25
-8 -10 -17 -18 -20 -18 -3 0 -7 8 -9 18 -3 9 -6 -2 -9 -25z"/>
<path d="M2640 1043 c0 -13 5 -23 10 -23 13 0 13 11 0 30 -8 12 -10 11 -10 -7z"/>
<path d="M1740 1015 c-7 -9 -8 -15 -2 -15 5 0 12 7 16 15 3 8 4 15 2 15 -2 0
-9 -7 -16 -15z"/>
<path d="M1756 994 c-5 -14 -4 -15 8 -5 8 7 21 9 27 5 8 -4 9 -3 5 4 -10 17
-33 15 -40 -4z"/>
<path d="M2743 1003 c9 -2 23 -2 30 0 6 3 -1 5 -18 5 -16 0 -22 -2 -12 -5z"/>
<path d="M1640 975 c0 -8 4 -15 10 -15 5 0 7 7 4 15 -4 8 -8 15 -10 15 -2 0
-4 -7 -4 -15z"/>
<path d="M2628 983 c7 -3 16 -2 19 1 4 3 -2 6 -13 5 -11 0 -14 -3 -6 -6z"/>
<path d="M2717 980 c-116 -20 -34 -20 198 0 l90 7 -120 0 c-66 1 -142 -3 -168
-7z"/>
<path d="M1936 965 c4 -8 11 -15 16 -15 6 0 5 6 -2 15 -7 8 -14 15 -16 15 -2
0 -1 -7 2 -15z"/>
<path d="M1111 954 c0 -11 3 -14 6 -6 3 7 2 16 -1 19 -3 4 -6 -2 -5 -13z"/>
<path d="M1600 940 c0 -6 5 -20 10 -31 7 -12 7 -19 1 -19 -6 0 -8 -7 -4 -16
10 -25 25 0 21 36 -3 30 -28 57 -28 30z"/>
<path d="M2728 943 c12 -2 30 -2 40 0 9 3 -1 5 -23 4 -22 0 -30 -2 -17 -4z"/>
<path d="M2889 922 c11 -8 11 -10 0 -15 -8 -3 0 -6 17 -6 17 -1 47 -3 65 -6
29 -4 28 -3 -10 10 -71 24 -88 28 -72 17z"/>
<path d="M2406 903 c-6 -14 -5 -15 5 -6 7 7 10 15 7 18 -3 3 -9 -2 -12 -12z"/>
<path d="M2464 889 l-29 -32 32 18 c18 10 29 23 26 29 -4 5 1 7 11 3 10 -4 15
-3 11 3 -10 16 -19 12 -51 -21z"/>
<path d="M2539 888 c-48 -26 -79 -52 -134 -117 -39 -47 -76 -86 -81 -88 -5 -1
-17 8 -26 22 -18 23 -18 23 24 37 31 11 38 16 25 21 -9 3 -17 2 -17 -3 0 -6
-10 -10 -22 -10 -22 1 -22 2 8 28 16 16 43 46 59 68 16 22 3 11 -31 -26 -32
-35 -58 -67 -57 -70 1 -4 -11 -6 -27 -5 -40 2 -49 -24 -16 -50 24 -19 38 -74
16 -60 -5 3 -10 -1 -10 -9 0 -25 29 -7 37 22 5 20 0 31 -26 54 -19 17 -26 28
-17 28 8 0 27 -15 41 -34 23 -30 25 -38 14 -58 -20 -37 -48 -138 -40 -142 4
-3 21 4 38 14 24 14 30 24 26 39 -3 12 -9 21 -15 21 -5 0 -4 -8 1 -19 8 -15 7
-20 -5 -25 -9 -3 -17 -6 -19 -6 -7 0 5 64 13 69 4 3 7 13 7 21 -1 20 7 30 102
128 45 47 80 88 78 92 -7 11 24 34 78 59 26 13 47 25 47 27 0 7 -8 4 -71 -28z
m-59 -61 c0 -2 -15 -16 -32 -33 l-33 -29 29 33 c28 30 36 37 36 29z"/>
<path d="M2846 908 c3 -4 9 -8 15 -8 5 0 9 4 9 8 0 5 -7 9 -15 9 -8 0 -12 -4
-9 -9z"/>
<path d="M1945 900 c3 -5 10 -10 16 -10 5 0 9 5 9 10 0 6 -7 10 -16 10 -8 0
-12 -4 -9 -10z"/>
<path d="M152 825 c0 -16 2 -22 5 -12 2 9 2 23 0 30 -3 6 -5 -1 -5 -18z"/>
<path d="M1700 839 c-69 -6 -65 -11 12 -14 25 -1 52 1 58 5 20 13 -2 15 -70 9z"/>
<path d="M1790 841 c0 -5 9 -12 19 -16 31 -10 114 -92 99 -98 -10 -4 -10 -6 0
-6 6 -1 15 -2 20 -2 4 -1 29 -19 56 -40 27 -22 54 -39 60 -40 26 -3 72 3 78
10 5 4 -8 5 -27 3 -45 -5 -91 24 -191 122 -50 50 -77 69 -84 62 -7 -7 -10 -6
-10 2 0 7 -4 12 -10 12 -5 0 -10 -4 -10 -9z"/>
<path d="M2940 836 c0 -2 11 -6 25 -8 13 -3 22 -1 19 3 -5 9 -44 13 -44 5z"/>
<path d="M728 803 c7 -3 16 -2 19 1 4 3 -2 6 -13 5 -11 0 -14 -3 -6 -6z"/>
<path d="M1939 795 c-1 -8 -2 -19 -3 -24 -2 -14 106 -97 134 -104 l25 -6 -25
19 c-13 10 -27 17 -31 14 -10 -6 -30 22 -22 29 3 4 0 7 -8 7 -20 0 -76 46 -58
48 78 11 99 15 99 23 0 5 -25 9 -55 9 -42 0 -55 -4 -56 -15z"/>
<path d="M2847 799 c7 -7 15 -10 18 -7 3 3 -2 9 -12 12 -14 6 -15 5 -6 -5z"/>
<path d="M1107 789 c7 -7 15 -10 18 -7 3 3 -2 9 -12 12 -14 6 -15 5 -6 -5z"/>
<path d="M2745 783 c-30 -13 -29 -13 15 -7 42 5 48 2 105 -43 61 -50 121 -134
128 -182 l4 -26 2 28 c1 28 -30 100 -49 112 -5 3 -10 11 -10 16 0 6 5 7 10 4
16 -10 11 1 -7 16 -11 10 -14 10 -9 2 12 -21 -9 -15 -30 8 -21 24 -91 73 -114
81 -8 3 -28 -1 -45 -9z"/>
<path d="M162 760 c0 -14 2 -19 5 -12 2 6 2 18 0 25 -3 6 -5 1 -5 -13z"/>
<path d="M1125 760 c3 -5 8 -10 11 -10 2 0 4 5 4 10 0 6 -5 10 -11 10 -5 0 -7
-4 -4 -10z"/>
<path d="M1770 760 c0 -6 7 -10 15 -10 8 0 15 2 15 4 0 2 -7 6 -15 10 -8 3
-15 1 -15 -4z"/>
<path d="M2675 760 c-3 -6 1 -7 9 -4 18 7 21 14 7 14 -6 0 -13 -4 -16 -10z"/>
<path d="M480 750 c0 -6 5 -10 10 -10 6 0 10 -7 10 -16 0 -10 -6 -14 -14 -11
-10 4 -13 1 -9 -9 4 -11 9 -12 19 -3 18 15 18 45 -1 53 -8 3 -15 1 -15 -4z"/>
<path d="M1725 750 c-3 -5 -1 -10 4 -10 6 0 11 5 11 10 0 6 -2 10 -4 10 -3 0
-8 -4 -11 -10z"/>
<path d="M1170 746 c0 -2 15 -6 34 -8 19 -2 32 0 30 4 -5 8 -64 12 -64 4z"/>
<path d="M2598 720 c-25 -16 -53 -39 -61 -50 -10 -14 -20 -19 -29 -14 -7 4
-10 4 -6 -1 4 -4 -1 -23 -12 -41 -12 -19 -20 -46 -18 -66 1 -19 -2 -40 -7 -47
-4 -8 -7 -38 -6 -67 1 -29 -3 -55 -9 -59 -5 -3 -10 -10 -10 -15 0 -6 15 6 33
25 17 19 64 51 102 70 39 19 66 34 60 35 -5 0 -40 -15 -77 -34 -47 -24 -70
-30 -77 -23 -14 14 -14 64 -1 72 6 3 10 26 10 51 0 40 5 49 53 97 28 30 66 63
82 75 43 31 28 26 -27 -8z"/>
<path d="M1847 734 c-3 -3 -3 -12 0 -20 3 -8 -2 -17 -11 -20 -9 -3 -16 -14
-16 -23 0 -12 2 -13 9 -3 7 11 9 11 14 -2 4 -9 13 -16 22 -16 19 0 15 -20 -9
-40 -24 -21 -15 -53 19 -68 21 -10 27 -8 40 11 21 30 19 42 -10 64 l-26 18 22
24 23 24 -23 18 c-13 11 -30 19 -38 19 -8 0 -11 5 -8 10 7 11 2 14 -8 4z m49
-63 c-10 -16 -36 -13 -43 5 -8 22 18 37 36 20 7 -8 10 -19 7 -25z m2 -70 c19
-11 11 -45 -11 -49 -19 -4 -32 20 -23 43 6 17 15 19 34 6z"/>
<path d="M642 710 c0 -14 2 -19 5 -12 2 6 2 18 0 25 -3 6 -5 1 -5 -13z"/>
<path d="M171 704 c0 -11 3 -14 6 -6 3 7 2 16 -1 19 -3 4 -6 -2 -5 -13z"/>
<path d="M686 707 c3 -10 9 -15 12 -12 3 3 0 11 -7 18 -10 9 -11 8 -5 -6z"/>
<path d="M1094 685 c-2 -32 12 -32 18 0 3 15 1 25 -6 25 -6 0 -12 -11 -12 -25z"/>
<path d="M2390 695 c-7 -9 -11 -17 -9 -20 3 -2 10 5 17 15 14 24 10 26 -8 5z"/>
<path d="M2775 685 c17 -14 35 -25 41 -25 6 0 21 -9 34 -20 27 -24 38 -26 20
-5 -7 8 -38 28 -69 45 -51 27 -53 27 -26 5z"/>
<path d="M2880 690 c0 -5 5 -10 11 -10 5 0 7 5 4 10 -3 6 -8 10 -11 10 -2 0
-4 -4 -4 -10z"/>
<path d="M256 681 c5 -6 29 -12 54 -16 79 -10 85 -12 88 -29 3 -14 -1 -16 -17
-11 -12 4 -21 2 -21 -4 0 -18 77 -13 84 5 10 26 7 44 -7 38 -7 -2 -40 2 -72
11 -67 17 -124 20 -109 6z m174 -46 c0 -8 -4 -15 -10 -15 -5 0 -10 7 -10 15 0
8 5 15 10 15 6 0 10 -7 10 -15z"/>
<path d="M2970 672 c0 -5 7 -15 15 -22 8 -7 15 -8 15 -2 0 5 -7 15 -15 22 -8
7 -15 8 -15 2z"/>
<path d="M2420 655 c-8 -9 -8 -15 -2 -15 12 0 26 19 19 26 -2 2 -10 -2 -17
-11z"/>
<path d="M2898 643 c5 -21 7 -23 10 -9 2 10 0 22 -6 28 -6 6 -7 0 -4 -19z"/>
<path d="M262 645 c3 -16 12 -21 48 -23 25 -2 42 -1 38 3 -3 3 -20 7 -37 7
-18 1 -36 8 -42 17 -8 14 -9 13 -7 -4z"/>
<path d="M497 646 c-4 -10 -7 -25 -6 -34 0 -11 4 -9 10 7 5 13 8 29 6 35 -2 5
-6 2 -10 -8z"/>
<path d="M2569 653 c-1 -5 -1 -12 0 -16 1 -5 -3 -6 -7 -3 -5 3 -18 -4 -28 -16
-19 -21 -19 -21 3 -9 12 6 31 11 42 11 12 0 21 5 21 10 0 6 -5 10 -11 10 -5 0
-7 5 -4 10 3 6 1 10 -4 10 -6 0 -12 -3 -12 -7z"/>
<path d="M755 640 l-30 -8 33 -1 c17 0 32 4 32 9 0 6 -1 9 -2 9 -2 -1 -16 -5
-33 -9z"/>
<path d="M1749 646 c-2 -3 -17 -7 -31 -10 -48 -8 -76 -37 -76 -78 0 -20 -6
-46 -11 -57 -32 -59 -1 -102 68 -94 43 5 84 -4 76 -18 -4 -6 7 -9 29 -7 20 1
36 6 36 11 0 5 -12 6 -27 3 -23 -5 -25 -4 -10 5 18 11 50 12 199 6 42 -2 74 1
72 5 -3 4 1 6 8 3 31 -11 68 -13 73 -4 4 5 11 9 16 9 6 0 7 -4 4 -10 -3 -5 1
-10 9 -10 8 0 18 5 22 12 4 7 3 8 -4 4 -16 -9 -15 -4 3 30 13 25 19 26 17 3
-1 -4 4 -6 11 -6 7 0 31 -8 53 -17 40 -17 42 -21 49 -72 3 -30 10 -56 14 -59
9 -5 7 24 -4 68 -7 25 -5 27 23 27 19 0 42 10 59 26 l28 26 -32 -21 c-17 -12
-44 -21 -60 -21 -20 0 -24 3 -14 9 10 6 2 11 -27 16 -22 3 -53 17 -67 31 -26
24 -27 31 -7 83 4 9 1 12 -7 7 -9 -6 -11 2 -8 33 2 23 0 41 -4 41 -9 0 -14
-32 -10 -60 8 -53 -11 -101 -24 -61 -3 12 -13 21 -21 21 -19 0 -18 10 4 26 11
9 13 13 4 14 -7 0 -20 -7 -28 -15 -12 -11 -20 -12 -35 -5 -22 12 -25 30 -7 48
16 16 23 15 43 -4 9 -9 19 -14 22 -11 11 11 -27 38 -49 35 -26 -4 -52 -48 -38
-62 6 -6 10 -12 10 -16 0 -3 -66 -6 -146 -8 -101 -2 -144 0 -139 7 4 8 -2 8
-20 1 -29 -11 -49 -5 -39 12 13 21 10 68 -5 68 -11 0 -11 3 -1 15 11 14 10 32
-1 21z m-14 -78 c2 -37 1 -38 -30 -38 -30 0 -33 3 -37 35 -4 36 6 45 46 42 14
-2 19 -11 21 -39z m455 -88 c20 -36 0 -39 -283 -42 l-277 -4 0 27 c0 14 2 28
4 30 3 2 127 4 276 4 234 0 273 -2 280 -15z"/>
<path d="M184 602 c4 -41 2 -44 -25 -54 -42 -15 -31 -20 14 -6 21 6 34 16 30
22 -4 6 -10 26 -15 46 -7 33 -7 32 -4 -8z"/>
<path d="M461 624 c0 -11 3 -14 6 -6 3 7 2 16 -1 19 -3 4 -6 -2 -5 -13z"/>
<path d="M610 619 c0 -5 5 -7 10 -4 6 3 10 8 10 11 0 2 -4 4 -10 4 -5 0 -10
-5 -10 -11z"/>
<path d="M641 604 c0 -11 3 -14 6 -6 3 7 2 16 -1 19 -3 4 -6 -2 -5 -13z"/>
<path d="M2625 606 c-67 -30 -96 -84 -56 -106 25 -13 31 -13 31 0 0 6 -6 10
-14 10 -25 0 -25 28 1 56 14 15 46 33 72 40 29 8 37 13 21 13 -14 0 -38 -6
-55 -13z"/>
<path d="M74 592 c-36 -30 -56 -70 -59 -117 -2 -25 1 -45 6 -45 8 0 14 37 10
68 -1 6 3 12 10 12 6 0 9 7 5 15 -3 8 -1 15 4 15 5 0 12 9 15 21 4 12 12 18
21 15 9 -3 14 1 14 14 0 24 0 24 -26 2z"/>
<path d="M2916 597 c3 -10 9 -15 12 -12 3 3 0 11 -7 18 -10 9 -11 8 -5 -6z"/>
<path d="M753 563 c9 -2 23 -2 30 0 6 3 -1 5 -18 5 -16 0 -22 -2 -12 -5z"/>
<path d="M808 553 c6 -2 18 -2 25 0 6 3 1 5 -13 5 -14 0 -19 -2 -12 -5z"/>
<path d="M858 543 c7 -3 16 -2 19 1 4 3 -2 6 -13 5 -11 0 -14 -3 -6 -6z"/>
<path d="M1210 515 c0 -19 5 -35 11 -35 6 0 9 6 6 14 -3 8 -1 16 5 18 14 5 3
38 -12 38 -5 0 -10 -16 -10 -35z"/>
<path d="M2840 529 c0 -4 18 -29 40 -55 22 -27 45 -62 50 -79 10 -30 10 -30 5
5 -3 19 -6 40 -7 47 -1 7 -5 10 -9 8 -4 -3 -23 14 -43 37 -20 24 -36 40 -36
37z"/>
<path d="M2972 505 c0 -16 2 -22 5 -12 2 9 2 23 0 30 -3 6 -5 -1 -5 -18z"/>
<path d="M250 509 c0 -5 17 -9 37 -9 43 0 41 6 -4 13 -18 3 -33 1 -33 -4z"/>
<path d="M334 498 c-3 -4 13 -8 35 -8 23 0 41 2 41 4 0 8 -71 12 -76 4z"/>
<path d="M2286 480 l-30 -19 30 -11 c28 -11 58 -9 99 6 18 7 19 6 5 -12 -14
-19 -14 -19 8 0 22 19 30 32 13 21 -6 -3 -14 3 -20 12 -9 16 -10 16 -11 2 0
-20 -35 -31 -68 -22 -22 5 -22 6 -6 24 21 23 17 23 -20 -1z"/>
<path d="M2658 493 c7 -3 16 -2 19 1 4 3 -2 6 -13 5 -11 0 -14 -3 -6 -6z"/>
<path d="M235 473 c23 -59 29 -128 15 -163 -7 -17 -16 -30 -21 -30 -5 0 -9 -6
-9 -12 1 -7 12 1 25 17 29 35 34 114 11 170 -15 35 -34 51 -21 18z"/>
<path d="M438 483 c7 -3 16 -2 19 1 4 3 -2 6 -13 5 -11 0 -14 -3 -6 -6z"/>
<path d="M488 483 c6 -2 18 -2 25 0 6 3 1 5 -13 5 -14 0 -19 -2 -12 -5z"/>
<path d="M530 482 c0 -12 97 -20 113 -10 7 4 -9 8 -35 8 -25 0 -53 3 -62 6 -9
3 -16 2 -16 -4z"/>
<path d="M680 470 c0 -6 7 -10 15 -10 8 0 15 2 15 4 0 2 -7 6 -15 10 -8 3 -15
1 -15 -4z"/>
<path d="M1026 465 c4 -8 10 -13 14 -10 5 3 25 -14 45 -37 24 -27 33 -34 25
-18 -26 53 -101 111 -84 65z"/>
<path d="M2836 440 c4 -14 7 -31 7 -37 0 -7 4 -13 9 -13 10 0 2 35 -14 60 -6
10 -7 7 -2 -10z"/>
<path d="M2970 442 c0 -10 -3 -21 -6 -24 -3 -4 -7 -33 -8 -65 -3 -54 -2 -56
10 -28 19 46 28 122 15 129 -7 4 -11 -1 -11 -12z"/>
<path d="M720 415 c-26 -43 -40 -145 -19 -145 8 0 21 5 29 11 13 9 12 10 -3 5
-16 -5 -17 0 -13 51 3 32 10 59 15 61 6 2 9 7 6 12 -7 11 15 27 45 33 22 4 21
4 -7 6 -26 1 -35 -5 -53 -34z"/>
<path d="M2555 424 c-31 -20 -34 -24 -15 -20 14 3 32 6 40 6 13 0 13 1 0 11
-12 9 -11 10 7 6 15 -3 20 -1 16 9 -6 17 -1 19 -48 -12z"/>
<path d="M2951 434 c0 -11 3 -14 6 -6 3 7 2 16 -1 19 -3 4 -6 -2 -5 -13z"/>
<path d="M61 408 c-7 -17 -5 -26 6 -35 31 -24 64 14 37 42 -21 21 -33 19 -43
-7z m27 -13 c-2 -5 -8 -10 -15 -11 -6 -1 -9 4 -6 12 6 16 27 15 21 -1z"/>
<path d="M905 420 c3 -5 8 -10 11 -10 2 0 4 5 4 10 0 6 -5 10 -11 10 -5 0 -7
-4 -4 -10z"/>
<path d="M10 373 c0 -45 35 -127 50 -118 5 3 8 0 5 -7 -3 -7 3 -18 13 -25 15
-9 19 -8 19 3 0 8 -4 14 -8 14 -14 0 -59 104 -59 137 0 18 -4 33 -10 33 -5 0
-10 -17 -10 -37z"/>
<path d="M1751 393 c0 -7 0 -14 1 -15 1 -2 -4 -13 -10 -25 -8 -14 -9 -24 -2
-28 14 -9 22 17 17 52 -2 15 -5 22 -6 16z"/>
<path d="M2590 390 c-9 -6 -10 -10 -3 -10 6 0 15 5 18 10 8 12 4 12 -15 0z"/>
<path d="M2517 357 c-21 -13 -35 -26 -31 -30 10 -10 26 -9 20 2 -3 5 10 16 29
25 33 16 44 26 28 26 -5 0 -25 -10 -46 -23z"/>
<path d="M2856 363 c-4 -9 -4 -14 0 -10 4 4 13 -1 21 -11 12 -15 13 -14 2 8
-16 33 -16 33 -23 13z"/>
<path d="M1820 346 c0 -14 5 -26 10 -26 6 0 10 7 10 15 0 8 0 18 1 22 0 4 -4
9 -10 11 -6 2 -11 -8 -11 -22z"/>
<path d="M1958 363 c7 -3 16 -2 19 1 4 3 -2 6 -13 5 -11 0 -14 -3 -6 -6z"/>
<path d="M1254 328 c-10 -12 -13 -18 -5 -13 10 5 12 4 7 -3 -9 -15 -12 -15
-30 3 -13 13 -21 9 -70 -36 -31 -28 -56 -58 -56 -66 0 -23 25 -9 28 16 2 15 8
21 18 17 8 -3 12 -1 9 4 -4 6 2 7 12 4 12 -4 14 -3 5 3 -9 7 -6 15 13 33 17
16 28 21 36 13 7 -7 -1 -20 -25 -41 -20 -17 -36 -37 -37 -44 0 -7 -4 -4 -9 7
-6 13 -9 15 -9 5 0 -8 4 -22 9 -30 9 -13 12 -13 21 3 5 9 18 17 28 17 23 0 45
25 35 41 -4 7 -3 9 4 5 6 -3 17 3 26 15 13 20 21 21 75 16 46 -4 61 -2 61 8 0
9 19 7 78 -10 42 -12 90 -28 106 -34 48 -19 39 -6 -12 17 -83 37 -170 53 -239
44 -34 -5 -60 -5 -57 0 3 4 21 8 41 8 44 0 41 5 -8 14 -29 5 -39 2 -55 -16z
m136 -12 c0 -11 -19 -15 -25 -6 -3 5 1 10 9 10 9 0 16 -2 16 -4z"/>
<path d="M2426 324 c-8 -20 -8 -24 2 -24 4 0 8 9 9 20 2 24 -3 26 -11 4z"/>
<path d="M775 309 c-39 -24 -21 -24 25 1 19 11 28 19 20 19 -8 0 -28 -9 -45
-20z"/>
<path d="M880 311 c0 -22 42 -91 52 -85 5 3 3 13 -6 23 -8 9 -22 30 -30 46 -9
17 -16 24 -16 16z"/>
<path d="M1767 314 c7 -3 9 -12 6 -19 -4 -11 3 -14 26 -12 17 1 33 7 35 14 3
6 -3 11 -12 11 -9 -1 -28 2 -42 5 -14 4 -20 4 -13 1z"/>
<path d="M1945 310 c3 -6 -1 -17 -9 -26 -9 -9 -13 -21 -9 -27 4 -6 9 -2 14 11
5 12 20 24 33 28 31 8 24 24 -10 24 -14 0 -23 -4 -19 -10z"/>
<path d="M2953 273 c-16 -23 -23 -48 -21 -76 l1 -42 6 40 c3 22 14 55 24 73
25 45 18 48 -10 5z"/>
<path d="M258 262 c-9 -23 -12 -40 -7 -37 7 5 15 -86 10 -117 0 -5 3 -8 9 -8
6 0 10 7 10 16 0 15 10 16 83 11 59 -3 75 -2 57 5 -14 5 -51 10 -82 11 l-57 2
-3 80 -3 80 -17 -43z"/>
<path d="M1194 278 l-19 -23 23 19 c21 18 27 26 19 26 -2 0 -12 -10 -23 -22z"/>
<path d="M2059 273 c-16 -19 -17 -22 -4 -11 11 9 32 21 45 27 22 9 23 10 4 10
-11 1 -31 -11 -45 -26z"/>
<path d="M2550 290 c57 -10 94 -25 134 -52 l31 -22 -19 22 c-23 27 -116 62
-159 61 -27 -1 -25 -2 13 -9z"/>
<path d="M1282 274 c-12 -8 -27 -24 -32 -35 -9 -17 -7 -19 18 -19 15 0 37 7
48 16 18 15 18 15 -5 8 -17 -4 -22 -2 -19 7 3 8 14 15 26 17 12 2 22 8 22 13
0 14 -33 11 -58 -7z"/>
<path d="M1417 279 c7 -7 15 -10 18 -7 3 3 -2 9 -12 12 -14 6 -15 5 -6 -5z"/>
<path d="M2354 279 c-39 -11 -62 -35 -34 -35 10 0 18 5 17 10 -1 6 9 12 23 14
14 2 29 8 35 13 11 11 2 11 -41 -2z"/>
<path d="M2425 273 c11 -3 31 -13 45 -23 35 -24 50 -32 50 -27 0 11 -78 57
-96 56 -18 -1 -18 -2 1 -6z"/>
<path d="M1451 266 c9 -10 139 -44 134 -36 -3 4 -26 13 -52 19 -27 7 -57 15
-68 18 -11 3 -17 3 -14 -1z"/>
<path d="M1980 260 c0 -5 5 -10 11 -10 5 0 7 5 4 10 -3 6 -8 10 -11 10 -2 0
-4 -4 -4 -10z"/>
<path d="M2080 245 c-13 -14 -26 -21 -29 -16 -3 4 -25 5 -48 2 -35 -5 -41 -9
-33 -21 6 -9 10 -10 10 -3 0 7 16 11 45 9 28 -2 50 2 56 11 6 7 16 10 22 6 5
-3 7 -1 4 4 -13 20 30 20 73 1 42 -20 127 -31 135 -18 3 4 -23 11 -57 14 -34
4 -74 14 -89 22 -40 20 -62 17 -89 -11z"/>
<path d="M2730 266 c0 -2 8 -10 18 -17 15 -13 16 -12 3 4 -13 16 -21 21 -21
13z"/>
<path d="M2780 257 c0 -2 14 -16 31 -33 16 -16 28 -22 24 -14 -5 13 -55 56
-55 47z"/>
<path d="M1676 243 c-3 -4 -6 -27 -6 -51 0 -25 3 -42 7 -39 3 4 6 21 5 39 -1
31 0 32 14 14 13 -19 14 -19 14 6 0 25 -21 44 -34 31z"/>
<path d="M1834 241 c4 -5 21 -7 39 -4 47 7 46 13 -2 13 -23 0 -40 -4 -37 -9z"/>
<path d="M1420 220 c25 -8 97 -13 89 -6 -2 2 -29 6 -59 9 -36 4 -46 3 -30 -3z"/>
<path d="M1740 219 c0 -5 -6 -7 -12 -3 -10 6 -10 5 -1 -7 6 -8 13 -25 16 -39
3 -16 5 -10 6 18 0 23 -1 42 -4 42 -3 0 -5 -5 -5 -11z"/>
<path d="M1763 208 c-2 -5 -3 -8 -1 -8 2 -1 37 -2 78 -3 41 -2 80 -6 87 -10 7
-5 10 -1 7 10 -4 15 -17 18 -86 18 -44 0 -82 -3 -85 -7z"/>
<path d="M2150 210 c0 -6 7 -10 15 -10 8 0 15 2 15 4 0 2 -7 6 -15 10 -8 3
-15 1 -15 -4z"/>
<path d="M2630 210 c8 -5 20 -10 25 -10 6 0 3 5 -5 10 -8 5 -19 10 -25 10 -5
0 -3 -5 5 -10z"/>
<path d="M2770 201 c0 -6 4 -13 10 -16 6 -3 7 1 4 9 -7 18 -14 21 -14 7z"/>
<path d="M430 186 c0 -25 27 -73 45 -80 13 -4 14 -2 5 14 -5 10 -15 22 -20 25
-6 3 -10 13 -10 21 0 12 15 14 84 12 46 -2 83 -5 81 -8 -6 -10 56 -3 67 8 9 9
2 12 -28 12 -23 0 -82 3 -132 6 -82 6 -92 5 -92 -10z"/>
<path d="M1228 193 c6 -2 18 -2 25 0 6 3 1 5 -13 5 -14 0 -19 -2 -12 -5z"/>
<path d="M2570 181 c0 -6 4 -13 10 -16 6 -3 7 1 4 9 -7 18 -14 21 -14 7z"/>
<path d="M715 171 c19 -9 18 -10 -5 -11 -18 -2 -14 -4 15 -10 22 -5 44 -4 50
1 5 5 25 8 45 8 l35 -2 -40 -6 c-38 -6 -36 -7 30 -14 39 -4 81 -11 94 -14 17
-4 22 -2 17 6 -4 6 -28 12 -54 13 l-47 1 45 6 c42 6 39 7 -40 14 -47 4 -103
10 -125 12 -30 4 -35 3 -20 -4z"/>
<path d="M1085 165 c120 -19 186 -26 150 -16 l-30 9 37 1 c33 1 68 -18 36 -20
-7 0 -4 -4 7 -9 11 -4 67 -8 125 -8 97 1 100 1 45 9 -33 4 -82 13 -110 19
-101 23 -152 29 -245 28 l-95 0 80 -13z m102 -1 c-3 -3 -12 -4 -19 -1 -8 3 -5
6 6 6 11 1 17 -2 13 -5z m144 -32 c-7 -2 -18 1 -23 6 -8 8 -4 9 13 5 13 -4 18
-8 10 -11z"/>
<path d="M975 160 c11 -5 29 -9 40 -9 20 0 20 0 0 9 -11 5 -29 9 -40 9 -20 0
-20 0 0 -9z"/>
<path d="M2080 150 c-8 -5 -10 -10 -5 -10 6 0 17 5 25 10 8 5 11 10 5 10 -5 0
-17 -5 -25 -10z"/>
<path d="M1689 123 c5 -10 24 -27 43 -37 33 -19 33 -19 -6 17 -45 42 -51 45
-37 20z"/>
<path d="M2031 119 c-13 -10 -19 -19 -14 -19 13 0 49 27 43 33 -3 3 -16 -3
-29 -14z"/>
<path d="M983 123 c9 -2 23 -2 30 0 6 3 -1 5 -18 5 -16 0 -22 -2 -12 -5z"/>
<path d="M2548 123 c7 -3 16 -2 19 1 4 3 -2 6 -13 5 -11 0 -14 -3 -6 -6z"/>
<path d="M2781 114 c0 -11 3 -14 6 -6 3 7 2 16 -1 19 -3 4 -6 -2 -5 -13z"/>
<path d="M1080 109 c25 -4 59 -7 75 -7 22 0 18 3 -15 9 -25 4 -58 7 -75 7 -22
0 -18 -3 15 -9z"/>
<path d="M78 103 c6 -2 18 -2 25 0 6 3 1 5 -13 5 -14 0 -19 -2 -12 -5z"/>
<path d="M178 103 c6 -2 18 -2 25 0 6 3 1 5 -13 5 -14 0 -19 -2 -12 -5z"/>
<path d="M1388 103 c7 -3 16 -2 19 1 4 3 -2 6 -13 5 -11 0 -14 -3 -6 -6z"/>
<path d="M1465 103 c28 -2 65 -11 83 -21 l33 -17 -93 -6 -93 -6 110 -2 c61 -2
134 -4 163 -5 30 -1 56 2 58 6 3 4 -25 8 -61 8 -54 0 -73 5 -103 25 -29 20
-48 25 -92 23 l-55 -2 50 -3z"/>
<path d="M1216 90 c30 -12 40 -30 16 -30 -10 0 -22 3 -25 7 -4 3 -78 7 -164 9
-87 2 -216 5 -288 8 -99 4 -134 2 -147 -8 -10 -7 -15 -16 -11 -19 3 -4 -14 -7
-40 -7 -35 0 -47 4 -51 18 -5 13 -19 18 -66 20 -55 3 -60 1 -60 -17 0 -22 -11
-23 -270 -23 -46 0 -50 -1 -25 -8 17 -4 144 -8 283 -9 244 -1 253 0 247 18 -5
18 0 19 112 15 65 -2 210 -6 323 -8 132 -3 206 -8 208 -15 5 -15 95 -14 110 1
15 15 16 32 2 23 -15 -9 -98 -10 -106 -2 -4 4 -2 7 4 7 7 0 12 5 12 11 0 8 -4
8 -14 0 -9 -7 -17 -8 -20 -2 -3 5 0 11 6 14 7 2 -3 4 -22 4 -29 1 -31 0 -14
-7z m-721 -30 c-3 -5 -13 -10 -21 -10 -8 0 -12 5 -9 10 3 6 13 10 21 10 8 0
12 -4 9 -10z"/>
<path d="M305 83 c16 -3 32 -8 35 -13 3 -4 11 -2 18 6 11 12 5 14 -35 13 -34
-2 -39 -3 -18 -6z"/>
<path d="M1390 78 c0 -4 12 -8 27 -8 14 0 23 3 19 7 -10 10 -46 11 -46 1z"/>
<path d="M48 73 c12 -2 30 -2 40 0 9 3 -1 5 -23 4 -22 0 -30 -2 -17 -4z"/>
<path d="M558 63 c7 -3 16 -2 19 1 4 3 -2 6 -13 5 -11 0 -14 -3 -6 -6z"/>
<path d="M1778 58 c5 -5 16 -8 23 -6 8 3 3 7 -10 11 -17 4 -21 3 -13 -5z"/>
<path d="M1008 33 c18 -2 45 -2 60 0 15 2 0 4 -33 4 -33 0 -45 -2 -27 -4z"/>
<path d="M1123 33 c15 -2 37 -2 50 0 12 2 0 4 -28 4 -27 0 -38 -2 -22 -4z"/>
<path d="M1213 33 c9 -2 23 -2 30 0 6 3 -1 5 -18 5 -16 0 -22 -2 -12 -5z"/>
<path d="M1943 33 c9 -2 23 -2 30 0 6 3 -1 5 -18 5 -16 0 -22 -2 -12 -5z"/>
<path d="M2233 33 c31 -2 83 -2 115 0 31 2 5 3 -58 3 -63 0 -89 -1 -57 -3z"/>
<path d="M2548 33 c6 -2 18 -2 25 0 6 3 1 5 -13 5 -14 0 -19 -2 -12 -5z"/>
<path d="M2617 33 c18 -2 50 -2 70 0 21 2 7 4 -32 4 -38 0 -55 -2 -38 -4z"/>
<path d="M2828 33 c34 -2 88 -2 120 0 31 2 3 3 -63 3 -66 0 -92 -1 -57 -3z"/>
<path d="M1733 23 c9 -2 23 -2 30 0 6 3 -1 5 -18 5 -16 0 -22 -2 -12 -5z"/>
<path d="M1788 23 c7 -3 16 -2 19 1 4 3 -2 6 -13 5 -11 0 -14 -3 -6 -6z"/>
<path d="M1112 3 c37 -2 100 -2 140 0 40 1 10 3 -67 3 -77 0 -110 -1 -73 -3z"/>
<path d="M2908 3 c12 -2 30 -2 40 0 9 3 -1 5 -23 4 -22 0 -30 -2 -17 -4z"/>
</g>
</svg>
